<?xml version="1.0" encoding="us-ascii" standalone="no"?><svg xmlns="http://www.w3.org/2000/svg" xmlns:xlink="http://www.w3.org/1999/xlink" contentStyleType="text/css" height="1032px" preserveAspectRatio="none" style="width:627px;height:1032px;background:#FFFFFF;" version="1.1" viewBox="0 0 627 1032" width="627px" zoomAndPan="magnify"><defs/><g><!--cluster Layouts--><g id="cluster_Layouts"><rect fill="none" height="249.6" rx="2.5" ry="2.5" style="stroke:#000000;stroke-width:1.5;" width="460" x="7" y="7"/><text fill="#000000" font-family="sans-serif" font-size="14" font-weight="bold" lengthAdjust="spacing" textLength="56" x="209" y="22.5352">Layouts</text></g><!--cluster Backends--><g id="cluster_Backends"><rect fill="none" height="721.34" rx="2.5" ry="2.5" style="stroke:#000000;stroke-width:1.5;" width="561" x="60" y="305.6"/><text fill="#000000" font-family="sans-serif" font-size="14" font-weight="bold" lengthAdjust="spacing" textLength="67" x="307" y="321.1352">Backends</text></g><!--class LayoutStrategy--><g id="elem_LayoutStrategy"><rect codeLine="5" fill="#F1F1F1" height="73.1094" id="LayoutStrategy" rx="2.5" ry="2.5" style="stroke:#181818;stroke-width:0.5;" width="197" x="138.5" y="42"/><ellipse cx="182.3" cy="62.3105" fill="#ADD1B2" rx="11" ry="11" style="stroke:#181818;stroke-width:1.0;"/><path d="M184.7731,68.4536 Q184.1921,68.7524 183.5529,68.9019 Q182.9138,69.0513 182.2082,69.0513 Q179.7014,69.0513 178.3815,67.3994 Q177.0617,65.7476 177.0617,62.6265 Q177.0617,59.4971 178.3815,57.8452 Q179.7014,56.1934 182.2082,56.1934 Q182.9138,56.1934 183.5612,56.3428 Q184.2087,56.4922 184.7731,56.791 L184.7731,59.5137 Q184.1423,58.9326 183.5488,58.6628 Q182.9553,58.3931 182.3244,58.3931 Q180.9797,58.3931 180.2949,59.4597 Q179.6101,60.5264 179.6101,62.6265 Q179.6101,64.7183 180.2949,65.7849 Q180.9797,66.8516 182.3244,66.8516 Q182.9553,66.8516 183.5488,66.5818 Q184.1423,66.312 184.7731,65.731 Z " fill="#000000"/><text fill="#000000" font-family="sans-serif" font-size="12" font-style="italic" lengthAdjust="spacing" textLength="59" x="223.7" y="58.6016">&#171;abstract&#187;</text><text fill="#000000" font-family="sans-serif" font-size="14" lengthAdjust="spacing" textLength="101" x="202.7" y="74.668">LayoutStrategy</text><line style="stroke:#181818;stroke-width:0.5;" x1="139.5" x2="334.5" y1="82.6211" y2="82.6211"/><line style="stroke:#181818;stroke-width:0.5;" x1="139.5" x2="334.5" y1="90.6211" y2="90.6211"/><text fill="#000000" font-family="sans-serif" font-size="14" lengthAdjust="spacing" textLength="185" x="144.5" y="108.1563">+render(backend, context)</text></g><!--class PerFilePlot--><g id="elem_PerFilePlot"><rect codeLine="9" fill="#F1F1F1" height="64.4883" id="PerFilePlot" rx="2.5" ry="2.5" style="stroke:#181818;stroke-width:0.5;" width="197" x="22.5" y="176.11"/><ellipse cx="80.75" cy="192.11" fill="#ADD1B2" rx="11" ry="11" style="stroke:#181818;stroke-width:1.0;"/><path d="M83.2231,198.2531 Q82.6421,198.5519 82.0029,198.7013 Q81.3638,198.8507 80.6582,198.8507 Q78.1514,198.8507 76.8315,197.1989 Q75.5117,195.547 75.5117,192.4259 Q75.5117,189.2965 76.8315,187.6447 Q78.1514,185.9928 80.6582,185.9928 Q81.3638,185.9928 82.0112,186.1422 Q82.6587,186.2916 83.2231,186.5905 L83.2231,189.3131 Q82.5923,188.7321 81.9988,188.4623 Q81.4053,188.1925 80.7744,188.1925 Q79.4297,188.1925 78.7449,189.2592 Q78.0601,190.3258 78.0601,192.4259 Q78.0601,194.5177 78.7449,195.5844 Q79.4297,196.651 80.7744,196.651 Q81.4053,196.651 81.9988,196.3812 Q82.5923,196.1115 83.2231,195.5304 Z " fill="#000000"/><text fill="#000000" font-family="sans-serif" font-size="14" lengthAdjust="spacing" textLength="72" x="101.25" y="197.401">PerFilePlot</text><line style="stroke:#181818;stroke-width:0.5;" x1="23.5" x2="218.5" y1="208.11" y2="208.11"/><line style="stroke:#181818;stroke-width:0.5;" x1="23.5" x2="218.5" y1="216.11" y2="216.11"/><text fill="#000000" font-family="sans-serif" font-size="14" lengthAdjust="spacing" textLength="185" x="28.5" y="233.6452">+render(backend, context)</text></g><!--class PerChannelPlot--><g id="elem_PerChannelPlot"><rect codeLine="13" fill="#F1F1F1" height="64.4883" id="PerChannelPlot" rx="2.5" ry="2.5" style="stroke:#181818;stroke-width:0.5;" width="197" x="254.5" y="176.11"/><ellipse cx="296.5" cy="192.11" fill="#ADD1B2" rx="11" ry="11" style="stroke:#181818;stroke-width:1.0;"/><path d="M298.9731,198.2531 Q298.3921,198.5519 297.7529,198.7013 Q297.1138,198.8507 296.4082,198.8507 Q293.9014,198.8507 292.5815,197.1989 Q291.2617,195.547 291.2617,192.4259 Q291.2617,189.2965 292.5815,187.6447 Q293.9014,185.9928 296.4082,185.9928 Q297.1138,185.9928 297.7612,186.1422 Q298.4087,186.2916 298.9731,186.5905 L298.9731,189.3131 Q298.3423,188.7321 297.7488,188.4623 Q297.1553,188.1925 296.5244,188.1925 Q295.1797,188.1925 294.4949,189.2592 Q293.8101,190.3258 293.8101,192.4259 Q293.8101,194.5177 294.4949,195.5844 Q295.1797,196.651 296.5244,196.651 Q297.1553,196.651 297.7488,196.3812 Q298.3423,196.1115 298.9731,195.5304 Z " fill="#000000"/><text fill="#000000" font-family="sans-serif" font-size="14" lengthAdjust="spacing" textLength="105" x="316.5" y="197.401">PerChannelPlot</text><line style="stroke:#181818;stroke-width:0.5;" x1="255.5" x2="450.5" y1="208.11" y2="208.11"/><line style="stroke:#181818;stroke-width:0.5;" x1="255.5" x2="450.5" y1="216.11" y2="216.11"/><text fill="#000000" font-family="sans-serif" font-size="14" lengthAdjust="spacing" textLength="185" x="260.5" y="233.6452">+render(backend, context)</text></g><!--class RenderBackend--><g id="elem_RenderBackend"><rect codeLine="19" fill="#F1F1F1" height="196.3945" id="RenderBackend" rx="2.5" ry="2.5" style="stroke:#181818;stroke-width:0.5;" width="292" x="135" y="340.6"/><ellipse cx="223.75" cy="356.6" fill="#B4A7E5" rx="11" ry="11" style="stroke:#181818;stroke-width:1.0;"/><path d="M220.1777,352.8651 L220.1777,350.7069 L227.5571,350.7069 L227.5571,352.8651 L225.0918,352.8651 L225.0918,360.9418 L227.5571,360.9418 L227.5571,363.1 L220.1777,363.1 L220.1777,360.9418 L222.6431,360.9418 L222.6431,352.8651 Z " fill="#000000"/><text fill="#000000" font-family="sans-serif" font-size="14" font-style="italic" lengthAdjust="spacing" textLength="106" x="244.25" y="361.891">RenderBackend</text><line style="stroke:#181818;stroke-width:0.5;" x1="136" x2="426" y1="372.6" y2="372.6"/><line style="stroke:#181818;stroke-width:0.5;" x1="136" x2="426" y1="380.6" y2="380.6"/><text fill="#000000" font-family="sans-serif" font-size="14" lengthAdjust="spacing" textLength="280" x="141" y="398.1352">+begin_figure(n_plots, share_x, share_y)</text><text fill="#000000" font-family="sans-serif" font-size="14" lengthAdjust="spacing" textLength="238" x="141" y="414.6234">+begin_plot(index, title, **kwargs)</text><text fill="#000000" font-family="sans-serif" font-size="14" lengthAdjust="spacing" textLength="150" x="141" y="431.1117">+line(x, y, label, style)</text><text fill="#000000" font-family="sans-serif" font-size="14" lengthAdjust="spacing" textLength="81" x="141" y="447.6">+end_plot()</text><text fill="#000000" font-family="sans-serif" font-size="14" lengthAdjust="spacing" textLength="95" x="141" y="464.0883">+end_figure()</text><text fill="#000000" font-family="sans-serif" font-size="14" lengthAdjust="spacing" textLength="57" x="141" y="480.5766">+show()</text><text fill="#000000" font-family="sans-serif" font-size="14" lengthAdjust="spacing" textLength="132" x="141" y="497.0648">+cleanup_current()</text><text fill="#000000" font-family="sans-serif" font-size="14" lengthAdjust="spacing" textLength="75" x="141" y="513.5531">+cleanup()</text><text fill="#000000" font-family="sans-serif" font-size="14" lengthAdjust="spacing" textLength="134" x="141" y="530.0414">+get_current_plot()</text></g><!--class DeltaMixin--><g id="elem_DeltaMixin"><rect codeLine="31" fill="#F1F1F1" height="89.5977" id="DeltaMixin" rx="2.5" ry="2.5" style="stroke:#181818;stroke-width:0.5;" width="174" x="76" y="904.85"/><ellipse cx="122.25" cy="925.1605" fill="#ADD1B2" rx="11" ry="11" style="stroke:#181818;stroke-width:1.0;"/><path d="M124.7231,931.3036 Q124.1421,931.6024 123.5029,931.7519 Q122.8638,931.9013 122.1582,931.9013 Q119.6514,931.9013 118.3315,930.2494 Q117.0117,928.5976 117.0117,925.4765 Q117.0117,922.3471 118.3315,920.6952 Q119.6514,919.0434 122.1582,919.0434 Q122.8638,919.0434 123.5112,919.1928 Q124.1587,919.3422 124.7231,919.641 L124.7231,922.3637 Q124.0923,921.7826 123.4988,921.5128 Q122.9053,921.2431 122.2744,921.2431 Q120.9297,921.2431 120.2449,922.3097 Q119.5601,923.3764 119.5601,925.4765 Q119.5601,927.5683 120.2449,928.6349 Q120.9297,929.7016 122.2744,929.7016 Q122.9053,929.7016 123.4988,929.4318 Q124.0923,929.162 124.7231,928.581 Z " fill="#000000"/><text fill="#000000" font-family="sans-serif" font-size="12" font-style="italic" lengthAdjust="spacing" textLength="59" x="149.75" y="921.4516">&#171;abstract&#187;</text><text fill="#000000" font-family="sans-serif" font-size="14" lengthAdjust="spacing" textLength="73" x="142.75" y="937.518">DeltaMixin</text><line style="stroke:#181818;stroke-width:0.5;" x1="77" x2="249" y1="945.4711" y2="945.4711"/><line style="stroke:#181818;stroke-width:0.5;" x1="77" x2="249" y1="953.4711" y2="953.4711"/><text fill="#000000" font-family="sans-serif" font-size="14" lengthAdjust="spacing" textLength="162" x="82" y="971.0063">+calculate_delta(s1, s2)</text><text fill="#000000" font-family="sans-serif" font-size="14" lengthAdjust="spacing" textLength="113" x="82" y="987.4945">+plot_delta(x, y)</text></g><!--class DescriptiveStatisticsMixin--><g id="elem_DescriptiveStatisticsMixin"><rect codeLine="36" fill="#F1F1F1" height="122.5742" id="DescriptiveStatisticsMixin" rx="2.5" ry="2.5" style="stroke:#181818;stroke-width:0.5;" width="320" x="285" y="888.37"/><ellipse cx="354.25" cy="908.6805" fill="#ADD1B2" rx="11" ry="11" style="stroke:#181818;stroke-width:1.0;"/><path d="M356.7231,914.8236 Q356.1421,915.1224 355.5029,915.2719 Q354.8638,915.4213 354.1582,915.4213 Q351.6514,915.4213 350.3315,913.7694 Q349.0117,912.1176 349.0117,908.9965 Q349.0117,905.8671 350.3315,904.2152 Q351.6514,902.5634 354.1582,902.5634 Q354.8638,902.5634 355.5112,902.7128 Q356.1587,902.8622 356.7231,903.161 L356.7231,905.8837 Q356.0923,905.3026 355.4988,905.0328 Q354.9053,904.7631 354.2744,904.7631 Q352.9297,904.7631 352.2449,905.8297 Q351.5601,906.8964 351.5601,908.9965 Q351.5601,911.0883 352.2449,912.1549 Q352.9297,913.2216 354.2744,913.2216 Q354.9053,913.2216 355.4988,912.9518 Q356.0923,912.682 356.7231,912.101 Z " fill="#000000"/><text fill="#000000" font-family="sans-serif" font-size="12" font-style="italic" lengthAdjust="spacing" textLength="59" x="431.75" y="904.9716">&#171;abstract&#187;</text><text fill="#000000" font-family="sans-serif" font-size="14" lengthAdjust="spacing" textLength="173" x="374.75" y="921.038">DescriptiveStatisticsMixin</text><line style="stroke:#181818;stroke-width:0.5;" x1="286" x2="604" y1="928.9911" y2="928.9911"/><line style="stroke:#181818;stroke-width:0.5;" x1="286" x2="604" y1="936.9911" y2="936.9911"/><text fill="#000000" font-family="sans-serif" font-size="14" lengthAdjust="spacing" textLength="170" x="291" y="954.5263">+annotate_extrema(x, y)</text><text fill="#000000" font-family="sans-serif" font-size="14" lengthAdjust="spacing" textLength="172" x="291" y="971.0145">+annotate_statistics(x, y)</text><text fill="#000000" font-family="sans-serif" font-size="14" lengthAdjust="spacing" textLength="308" x="291" y="987.5028">+plot_extrema(x_min, y_min, x_max, y_max)</text><text fill="#000000" font-family="sans-serif" font-size="14" lengthAdjust="spacing" textLength="121" x="291" y="1003.9911">+plot_statistics(y)</text></g><!--class MatplotlibBackend--><g id="elem_MatplotlibBackend"><rect codeLine="43" fill="#F1F1F1" height="229.3711" id="MatplotlibBackend" rx="2.5" ry="2.5" style="stroke:#181818;stroke-width:0.5;" width="320" x="121" y="597.99"/><ellipse cx="213.75" cy="613.99" fill="#ADD1B2" rx="11" ry="11" style="stroke:#181818;stroke-width:1.0;"/><path d="M216.2231,620.1331 Q215.6421,620.4319 215.0029,620.5813 Q214.3638,620.7307 213.6582,620.7307 Q211.1514,620.7307 209.8315,619.0789 Q208.5117,617.427 208.5117,614.3059 Q208.5117,611.1765 209.8315,609.5247 Q211.1514,607.8728 213.6582,607.8728 Q214.3638,607.8728 215.0112,608.0222 Q215.6587,608.1716 216.2231,608.4705 L216.2231,611.1931 Q215.5923,610.6121 214.9988,610.3423 Q214.4053,610.0725 213.7744,610.0725 Q212.4297,610.0725 211.7449,611.1392 Q211.0601,612.2058 211.0601,614.3059 Q211.0601,616.3977 211.7449,617.4644 Q212.4297,618.531 213.7744,618.531 Q214.4053,618.531 214.9988,618.2612 Q215.5923,617.9915 216.2231,617.4104 Z " fill="#000000"/><text fill="#000000" font-family="sans-serif" font-size="14" lengthAdjust="spacing" textLength="126" x="234.25" y="619.281">MatplotlibBackend</text><line style="stroke:#181818;stroke-width:0.5;" x1="122" x2="440" y1="629.99" y2="629.99"/><line style="stroke:#181818;stroke-width:0.5;" x1="122" x2="440" y1="637.99" y2="637.99"/><text fill="#000000" font-family="sans-serif" font-size="14" lengthAdjust="spacing" textLength="113" x="127" y="655.5252">+plot_delta(x, y)</text><text fill="#000000" font-family="sans-serif" font-size="14" lengthAdjust="spacing" textLength="308" x="127" y="672.0134">+plot_extrema(x_min, y_min, x_max, y_max)</text><text fill="#000000" font-family="sans-serif" font-size="14" lengthAdjust="spacing" textLength="121" x="127" y="688.5017">+plot_statistics(y)</text><text fill="#000000" font-family="sans-serif" font-size="14" lengthAdjust="spacing" textLength="120" x="127" y="704.99">+begin_figure(...)</text><text fill="#000000" font-family="sans-serif" font-size="14" lengthAdjust="spacing" textLength="106" x="127" y="721.4783">+begin_plot(...)</text><text fill="#000000" font-family="sans-serif" font-size="14" lengthAdjust="spacing" textLength="58" x="127" y="737.9666">+line(...)</text><text fill="#000000" font-family="sans-serif" font-size="14" lengthAdjust="spacing" textLength="81" x="127" y="754.4548">+end_plot()</text><text fill="#000000" font-family="sans-serif" font-size="14" lengthAdjust="spacing" textLength="95" x="127" y="770.9431">+end_figure()</text><text fill="#000000" font-family="sans-serif" font-size="14" lengthAdjust="spacing" textLength="57" x="127" y="787.4314">+show()</text><text fill="#000000" font-family="sans-serif" font-size="14" lengthAdjust="spacing" textLength="132" x="127" y="803.9197">+cleanup_current()</text><text fill="#000000" font-family="sans-serif" font-size="14" lengthAdjust="spacing" textLength="75" x="127" y="820.408">+cleanup()</text></g><!--reverse link LayoutStrategy to PerFilePlot--><g id="link_LayoutStrategy_PerFilePlot"><path codeLine="58" d="M192.2792,128.8256 C174.9892,147.8656 166.05,157.72 149.44,176.03 " fill="none" id="LayoutStrategy-backto-PerFilePlot" style="stroke:#181818;stroke-width:1.0;"/><polygon fill="none" points="204.38,115.5,187.8374,124.792,196.7211,132.8592,204.38,115.5" style="stroke:#181818;stroke-width:1.0;"/></g><!--reverse link LayoutStrategy to PerChannelPlot--><g id="link_LayoutStrategy_PerChannelPlot"><path codeLine="59" d="M281.7208,128.8256 C299.0108,147.8656 307.95,157.72 324.56,176.03 " fill="none" id="LayoutStrategy-backto-PerChannelPlot" style="stroke:#181818;stroke-width:1.0;"/><polygon fill="none" points="269.62,115.5,277.2789,132.8592,286.1626,124.792,269.62,115.5" style="stroke:#181818;stroke-width:1.0;"/></g><!--link PerFilePlot to RenderBackend--><g id="link_PerFilePlot_RenderBackend"><path codeLine="60" d="M142.91,240.64 C160.97,266.42 184.1586,299.5251 209.2186,335.3151 " fill="none" id="PerFilePlot-to-RenderBackend" style="stroke:#181818;stroke-width:1.0;stroke-dasharray:7.0,7.0;"/><polygon fill="#181818" points="212.66,340.23,210.7745,330.5633,209.7922,336.1342,204.2212,335.1519,212.66,340.23" style="stroke:#181818;stroke-width:1.0;"/><text fill="#000000" font-family="sans-serif" font-size="13" lengthAdjust="spacing" textLength="110" x="173.75" y="286.1684">calls backend API</text></g><!--link PerChannelPlot to RenderBackend--><g id="link_PerChannelPlot_RenderBackend"><path codeLine="61" d="M343.14,240.64 C335.01,266.42 324.8336,298.7175 313.5536,334.5075 " fill="none" id="PerChannelPlot-to-RenderBackend" style="stroke:#181818;stroke-width:1.0;stroke-dasharray:7.0,7.0;"/><polygon fill="#181818" points="311.75,340.23,318.2704,332.8486,313.253,335.4612,310.6404,330.4439,311.75,340.23" style="stroke:#181818;stroke-width:1.0;"/><text fill="#000000" font-family="sans-serif" font-size="13" lengthAdjust="spacing" textLength="110" x="332.72" y="286.1684">calls backend API</text></g><!--reverse link RenderBackend to MatplotlibBackend--><g id="link_RenderBackend_MatplotlibBackend"><path codeLine="63" d="M281,555.19 C281,574.84 281,577.67 281,597.83 " fill="none" id="RenderBackend-backto-MatplotlibBackend" style="stroke:#181818;stroke-width:1.0;stroke-dasharray:7.0,7.0;"/><polygon fill="none" points="281,537.19,275,555.19,287,555.19,281,537.19" style="stroke:#181818;stroke-width:1.0;"/></g><!--link MatplotlibBackend to DeltaMixin--><g id="link_MatplotlibBackend_DeltaMixin"><path codeLine="64" d="M223.73,827.72 C209.99,855.09 204.1963,866.6135 193.1963,888.5235 " fill="none" id="MatplotlibBackend-to-DeltaMixin" style="stroke:#181818;stroke-width:1.0;"/><polygon fill="none" points="185.12,904.61,198.5584,891.2156,187.8341,885.8315,185.12,904.61" style="stroke:#181818;stroke-width:1.0;"/></g><!--link MatplotlibBackend to DescriptiveStatisticsMixin--><g id="link_MatplotlibBackend_DescriptiveStatisticsMixin"><path codeLine="65" d="M360.6,827.72 C375.12,848.54 379.447,854.7403 392.347,873.2203 " fill="none" id="MatplotlibBackend-to-DescriptiveStatisticsMixin" style="stroke:#181818;stroke-width:1.0;"/><polygon fill="none" points="402.65,887.98,397.2669,869.786,387.4271,876.6547,402.65,887.98" style="stroke:#181818;stroke-width:1.0;"/></g><!--SRC=[hLF1Rjim3BthAuIUt2unkXs7842xOK215GYM3p1ebNM4AB8XqQszfVy-sfOJrMc05kZ98j_Z8scIVgjj1GvsKXdm_eR8wRmcl5EbNUk_AA-5Fr0gK5ieS4sjGUbG4TZ2e131Boz-GrlMv2yaU1dUyf-GWtRmhCa1OT7AnG9opuQYvR9dIVd5eNr0b-GioA-Pv2e86xfaz4KSX5ReVcc3ArFIXmD_RC1QDE-EVOdQknqOGt-ZqQjeZd2Fe53-wSK2E6R8iT0sUzH5xJ2nMSN9_Kpw3JZCcl7HNiRaZfDercASD1cSoQkhxJEumWUUqHOJHjkPD92ZOPrkC07bx8D6P8S2WiTlokVnhGo2hQjCrOx_1atSeraWZOoZTlHxVw8XkDUDjcyELu5HjU7XPmyTCV5VkUHlGRlJ2_wkfnDbhvokI3_nzW5fJrhvyvbun2LrYNYC3dT7oHZp1w4OxkiuX6KxRHaRFcn1qrlGnEn8Q5htFL17CJgVRCGRxNvEykcsfMbwkbT7Pxz4H_FJjwO_eEdXx-Vp-8RFuT6fYlZaqtGvERFladVBU1bEMDwixiJarjyN95vJ5liqFPsXE9tgVBvVHkj_dd5kZSL_]--></g></svg>