<?xml version="1.0" encoding="us-ascii" standalone="no"?><svg xmlns="http://www.w3.org/2000/svg" xmlns:xlink="http://www.w3.org/1999/xlink" contentStyleType="text/css" height="660px" preserveAspectRatio="none" style="width:1003px;height:660px;background:#FFFFFF;" version="1.1" viewBox="0 0 1003 660" width="1003px" zoomAndPan="magnify"><defs/><g><!--cluster Core--><g id="cluster_Core"><rect fill="none" height="454.84" rx="2.5" ry="2.5" style="stroke:#000000;stroke-width:1.5;" width="556" x="7" y="7"/><text fill="#000000" font-family="sans-serif" font-size="14" font-weight="bold" lengthAdjust="spacing" textLength="88" x="241" y="22.5352">Render Core</text></g><!--cluster Data--><g id="cluster_Data"><rect fill="none" height="399.13" rx="2.5" ry="2.5" style="stroke:#000000;stroke-width:1.5;" width="410" x="587" y="255.66"/><text fill="#000000" font-family="sans-serif" font-size="14" font-weight="bold" lengthAdjust="spacing" textLength="88" x="748" y="271.1952">Render Data</text></g><!--class Renderer--><g id="elem_Renderer"><rect codeLine="5" fill="#F1F1F1" height="130.4414" id="Renderer" rx="2.5" ry="2.5" style="stroke:#181818;stroke-width:0.5;" width="214" x="326" y="42"/><ellipse cx="397.25" cy="58" fill="#ADD1B2" rx="11" ry="11" style="stroke:#181818;stroke-width:1.0;"/><path d="M399.7231,64.1431 Q399.1421,64.4419 398.5029,64.5913 Q397.8638,64.7407 397.1582,64.7407 Q394.6514,64.7407 393.3315,63.0889 Q392.0117,61.437 392.0117,58.3159 Q392.0117,55.1865 393.3315,53.5347 Q394.6514,51.8828 397.1582,51.8828 Q397.8638,51.8828 398.5112,52.0322 Q399.1587,52.1816 399.7231,52.4805 L399.7231,55.2031 Q399.0923,54.6221 398.4988,54.3523 Q397.9053,54.0825 397.2744,54.0825 Q395.9297,54.0825 395.2449,55.1492 Q394.5601,56.2158 394.5601,58.3159 Q394.5601,60.4077 395.2449,61.4744 Q395.9297,62.541 397.2744,62.541 Q397.9053,62.541 398.4988,62.2712 Q399.0923,62.0015 399.7231,61.4204 Z " fill="#000000"/><text fill="#000000" font-family="sans-serif" font-size="14" lengthAdjust="spacing" textLength="63" x="417.75" y="63.291">Renderer</text><line style="stroke:#181818;stroke-width:0.5;" x1="327" x2="539" y1="74" y2="74"/><line style="stroke:#181818;stroke-width:0.5;" x1="327" x2="539" y1="82" y2="82"/><text fill="#000000" font-family="sans-serif" font-size="14" lengthAdjust="spacing" textLength="202" x="332" y="99.5352">+render(files, channels, data)</text><text fill="#000000" font-family="sans-serif" font-size="14" lengthAdjust="spacing" textLength="75" x="332" y="116.0234">+cleanup()</text><text fill="#000000" font-family="sans-serif" font-size="14" lengthAdjust="spacing" textLength="164" x="332" y="132.5117">+set_backend(backend)</text><text fill="#000000" font-family="sans-serif" font-size="14" lengthAdjust="spacing" textLength="194" x="332" y="149">+set_layout_strategy(layout)</text><text fill="#000000" font-family="sans-serif" font-size="14" lengthAdjust="spacing" textLength="152" x="332" y="165.4883">+set_options(options)</text></g><!--class RenderBackend--><g id="elem_RenderBackend"><rect codeLine="13" fill="#F1F1F1" height="196.3945" id="RenderBackend" rx="2.5" ry="2.5" style="stroke:#181818;stroke-width:0.5;" width="292" x="23" y="249.44"/><ellipse cx="111.75" cy="265.44" fill="#B4A7E5" rx="11" ry="11" style="stroke:#181818;stroke-width:1.0;"/><path d="M108.1777,261.7051 L108.1777,259.5469 L115.5571,259.5469 L115.5571,261.7051 L113.0918,261.7051 L113.0918,269.7818 L115.5571,269.7818 L115.5571,271.94 L108.1777,271.94 L108.1777,269.7818 L110.6431,269.7818 L110.6431,261.7051 Z " fill="#000000"/><text fill="#000000" font-family="sans-serif" font-size="14" font-style="italic" lengthAdjust="spacing" textLength="106" x="132.25" y="270.731">RenderBackend</text><line style="stroke:#181818;stroke-width:0.5;" x1="24" x2="314" y1="281.44" y2="281.44"/><line style="stroke:#181818;stroke-width:0.5;" x1="24" x2="314" y1="289.44" y2="289.44"/><text fill="#000000" font-family="sans-serif" font-size="14" lengthAdjust="spacing" textLength="280" x="29" y="306.9752">+begin_figure(n_plots, share_x, share_y)</text><text fill="#000000" font-family="sans-serif" font-size="14" lengthAdjust="spacing" textLength="238" x="29" y="323.4634">+begin_plot(index, title, **kwargs)</text><text fill="#000000" font-family="sans-serif" font-size="14" lengthAdjust="spacing" textLength="150" x="29" y="339.9517">+line(x, y, label, style)</text><text fill="#000000" font-family="sans-serif" font-size="14" lengthAdjust="spacing" textLength="81" x="29" y="356.44">+end_plot()</text><text fill="#000000" font-family="sans-serif" font-size="14" lengthAdjust="spacing" textLength="95" x="29" y="372.9283">+end_figure()</text><text fill="#000000" font-family="sans-serif" font-size="14" lengthAdjust="spacing" textLength="57" x="29" y="389.4166">+show()</text><text fill="#000000" font-family="sans-serif" font-size="14" lengthAdjust="spacing" textLength="132" x="29" y="405.9048">+cleanup_current()</text><text fill="#000000" font-family="sans-serif" font-size="14" lengthAdjust="spacing" textLength="75" x="29" y="422.3931">+cleanup()</text><text fill="#000000" font-family="sans-serif" font-size="14" lengthAdjust="spacing" textLength="134" x="29" y="438.8814">+get_current_plot()</text></g><!--class LayoutStrategy--><g id="elem_LayoutStrategy"><rect codeLine="25" fill="#F1F1F1" height="73.1094" id="LayoutStrategy" rx="2.5" ry="2.5" style="stroke:#181818;stroke-width:0.5;" width="197" x="350.5" y="311.08"/><ellipse cx="394.3" cy="331.3905" fill="#ADD1B2" rx="11" ry="11" style="stroke:#181818;stroke-width:1.0;"/><path d="M396.7731,337.5336 Q396.1921,337.8324 395.5529,337.9819 Q394.9138,338.1313 394.2082,338.1313 Q391.7014,338.1313 390.3815,336.4794 Q389.0617,334.8276 389.0617,331.7065 Q389.0617,328.5771 390.3815,326.9252 Q391.7014,325.2734 394.2082,325.2734 Q394.9138,325.2734 395.5612,325.4228 Q396.2087,325.5722 396.7731,325.871 L396.7731,328.5937 Q396.1423,328.0126 395.5488,327.7428 Q394.9553,327.4731 394.3244,327.4731 Q392.9797,327.4731 392.2949,328.5397 Q391.6101,329.6064 391.6101,331.7065 Q391.6101,333.7983 392.2949,334.8649 Q392.9797,335.9316 394.3244,335.9316 Q394.9553,335.9316 395.5488,335.6618 Q396.1423,335.392 396.7731,334.811 Z " fill="#000000"/><text fill="#000000" font-family="sans-serif" font-size="12" font-style="italic" lengthAdjust="spacing" textLength="59" x="435.7" y="327.6816">&#171;abstract&#187;</text><text fill="#000000" font-family="sans-serif" font-size="14" lengthAdjust="spacing" textLength="101" x="414.7" y="343.748">LayoutStrategy</text><line style="stroke:#181818;stroke-width:0.5;" x1="351.5" x2="546.5" y1="351.7011" y2="351.7011"/><line style="stroke:#181818;stroke-width:0.5;" x1="351.5" x2="546.5" y1="359.7011" y2="359.7011"/><text fill="#000000" font-family="sans-serif" font-size="14" lengthAdjust="spacing" textLength="185" x="356.5" y="377.2363">+render(backend, context)</text></g><!--class RenderOptions--><g id="elem_RenderOptions"><rect codeLine="31" fill="#F1F1F1" height="113.9531" id="RenderOptions" rx="2.5" ry="2.5" style="stroke:#181818;stroke-width:0.5;" width="135" x="603.5" y="524.84"/><ellipse cx="618.5" cy="540.84" fill="#ADD1B2" rx="11" ry="11" style="stroke:#181818;stroke-width:1.0;"/><path d="M620.9731,546.9831 Q620.3921,547.2819 619.7529,547.4313 Q619.1138,547.5807 618.4082,547.5807 Q615.9014,547.5807 614.5815,545.9289 Q613.2617,544.277 613.2617,541.1559 Q613.2617,538.0265 614.5815,536.3747 Q615.9014,534.7228 618.4082,534.7228 Q619.1138,534.7228 619.7612,534.8722 Q620.4087,535.0216 620.9731,535.3205 L620.9731,538.0431 Q620.3423,537.4621 619.7488,537.1923 Q619.1553,536.9225 618.5244,536.9225 Q617.1797,536.9225 616.4949,537.9892 Q615.8101,539.0558 615.8101,541.1559 Q615.8101,543.2477 616.4949,544.3144 Q617.1797,545.381 618.5244,545.381 Q619.1553,545.381 619.7488,545.1112 Q620.3423,544.8415 620.9731,544.2604 Z " fill="#000000"/><text fill="#000000" font-family="sans-serif" font-size="14" lengthAdjust="spacing" textLength="103" x="632.5" y="546.131">RenderOptions</text><line style="stroke:#181818;stroke-width:0.5;" x1="604.5" x2="737.5" y1="556.84" y2="556.84"/><text fill="#000000" font-family="sans-serif" font-size="14" lengthAdjust="spacing" textLength="65" x="609.5" y="574.3752">+share_x</text><text fill="#000000" font-family="sans-serif" font-size="14" lengthAdjust="spacing" textLength="63" x="609.5" y="590.8634">+share_y</text><text fill="#000000" font-family="sans-serif" font-size="14" lengthAdjust="spacing" textLength="85" x="609.5" y="607.3517">+calc_deltas</text><text fill="#000000" font-family="sans-serif" font-size="14" lengthAdjust="spacing" textLength="81" x="609.5" y="623.84">+desc_stats</text><line style="stroke:#181818;stroke-width:0.5;" x1="604.5" x2="737.5" y1="630.7931" y2="630.7931"/></g><!--class RenderContext--><g id="elem_RenderContext"><rect codeLine="38" fill="#F1F1F1" height="113.9531" id="RenderContext" rx="2.5" ry="2.5" style="stroke:#181818;stroke-width:0.5;" width="136" x="603" y="290.66"/><ellipse cx="618" cy="306.66" fill="#ADD1B2" rx="11" ry="11" style="stroke:#181818;stroke-width:1.0;"/><path d="M620.4731,312.8031 Q619.8921,313.1019 619.2529,313.2513 Q618.6138,313.4007 617.9082,313.4007 Q615.4014,313.4007 614.0815,311.7489 Q612.7617,310.097 612.7617,306.9759 Q612.7617,303.8465 614.0815,302.1947 Q615.4014,300.5428 617.9082,300.5428 Q618.6138,300.5428 619.2612,300.6922 Q619.9087,300.8416 620.4731,301.1405 L620.4731,303.8631 Q619.8423,303.2821 619.2488,303.0123 Q618.6553,302.7425 618.0244,302.7425 Q616.6797,302.7425 615.9949,303.8092 Q615.3101,304.8758 615.3101,306.9759 Q615.3101,309.0677 615.9949,310.1344 Q616.6797,311.201 618.0244,311.201 Q618.6553,311.201 619.2488,310.9312 Q619.8423,310.6615 620.4731,310.0804 Z " fill="#000000"/><text fill="#000000" font-family="sans-serif" font-size="14" lengthAdjust="spacing" textLength="104" x="632" y="311.951">RenderContext</text><line style="stroke:#181818;stroke-width:0.5;" x1="604" x2="738" y1="322.66" y2="322.66"/><text fill="#000000" font-family="sans-serif" font-size="14" lengthAdjust="spacing" textLength="39" x="609" y="340.1952">+files</text><text fill="#000000" font-family="sans-serif" font-size="14" lengthAdjust="spacing" textLength="72" x="609" y="356.6834">+channels</text><text fill="#000000" font-family="sans-serif" font-size="14" lengthAdjust="spacing" textLength="41" x="609" y="373.1717">+data</text><text fill="#000000" font-family="sans-serif" font-size="14" lengthAdjust="spacing" textLength="63" x="609" y="389.66">+options</text><line style="stroke:#181818;stroke-width:0.5;" x1="604" x2="738" y1="396.6131" y2="396.6131"/></g><!--class ReadingsFile--><g id="elem_ReadingsFile"><rect codeLine="45" fill="#F1F1F1" height="97.4648" id="ReadingsFile" rx="2.5" ry="2.5" style="stroke:#181818;stroke-width:0.5;" width="207" x="773.5" y="533.08"/><ellipse cx="829.25" cy="549.08" fill="#ADD1B2" rx="11" ry="11" style="stroke:#181818;stroke-width:1.0;"/><path d="M831.7231,555.2231 Q831.1421,555.5219 830.5029,555.6713 Q829.8638,555.8207 829.1582,555.8207 Q826.6514,555.8207 825.3315,554.1689 Q824.0117,552.517 824.0117,549.3959 Q824.0117,546.2665 825.3315,544.6147 Q826.6514,542.9628 829.1582,542.9628 Q829.8638,542.9628 830.5112,543.1122 Q831.1587,543.2616 831.7231,543.5605 L831.7231,546.2831 Q831.0923,545.7021 830.4988,545.4323 Q829.9053,545.1625 829.2744,545.1625 Q827.9297,545.1625 827.2449,546.2292 Q826.5601,547.2958 826.5601,549.3959 Q826.5601,551.4877 827.2449,552.5544 Q827.9297,553.621 829.2744,553.621 Q829.9053,553.621 830.4988,553.3512 Q831.0923,553.0815 831.7231,552.5004 Z " fill="#000000"/><text fill="#000000" font-family="sans-serif" font-size="14" lengthAdjust="spacing" textLength="87" x="849.75" y="554.371">ReadingsFile</text><line style="stroke:#181818;stroke-width:0.5;" x1="774.5" x2="979.5" y1="565.08" y2="565.08"/><line style="stroke:#181818;stroke-width:0.5;" x1="774.5" x2="979.5" y1="573.08" y2="573.08"/><text fill="#000000" font-family="sans-serif" font-size="14" lengthAdjust="spacing" textLength="141" x="779.5" y="590.6152">+get_time_channel()</text><text fill="#000000" font-family="sans-serif" font-size="14" lengthAdjust="spacing" textLength="195" x="779.5" y="607.1034">+get_channel_data(channel)</text><text fill="#000000" font-family="sans-serif" font-size="14" lengthAdjust="spacing" textLength="174" x="779.5" y="623.5917">+get_numeric_channels()</text></g><!--link Renderer to RenderContext--><g id="link_Renderer_RenderContext"><path codeLine="52" d="M528.27,172.82 C540.07,182.25 551.62,192.23 562,202.44 C588.96,228.96 611.2431,257.5489 630.9231,285.5889 " fill="none" id="Renderer-to-RenderContext" style="stroke:#181818;stroke-width:1.0;"/><polygon fill="#181818" points="634.37,290.5,632.4737,280.8354,631.4976,286.4074,625.9256,285.4313,634.37,290.5" style="stroke:#181818;stroke-width:1.0;"/><text fill="#000000" font-family="sans-serif" font-size="13" lengthAdjust="spacing" textLength="39" x="576.62" y="216.0084">builds</text></g><!--link Renderer to LayoutStrategy--><g id="link_Renderer_LayoutStrategy"><path codeLine="53" d="M437.33,172.74 C440.31,217.15 443.7591,268.4934 446.1991,304.9334 " fill="none" id="Renderer-to-LayoutStrategy" style="stroke:#181818;stroke-width:1.0;"/><polygon fill="#181818" points="446.6,310.92,449.9898,301.6729,446.266,305.9312,442.0076,302.2073,446.6,310.92" style="stroke:#181818;stroke-width:1.0;"/><text fill="#000000" font-family="sans-serif" font-size="13" lengthAdjust="spacing" textLength="112" x="441.04" y="216.0084">delegates render()</text></g><!--link Renderer to RenderBackend--><g id="link_Renderer_RenderBackend"><path codeLine="54" d="M361.56,172.74 C335.52,196.25 309.9228,219.3684 281.4228,245.1084 " fill="none" id="Renderer-to-RenderBackend" style="stroke:#181818;stroke-width:1.0;"/><polygon fill="#181818" points="276.97,249.13,286.3302,246.0662,280.6806,245.7787,280.9681,240.1292,276.97,249.13" style="stroke:#181818;stroke-width:1.0;"/><text fill="#000000" font-family="sans-serif" font-size="13" lengthAdjust="spacing" textLength="29" x="325.65" y="216.0084">uses</text></g><!--link RenderContext to RenderOptions--><g id="link_RenderContext_RenderOptions"><path codeLine="56" d="M671,404.84 C671,441.21 671,482.38 671,518.73 " fill="none" id="RenderContext-to-RenderOptions" style="stroke:#181818;stroke-width:1.0;"/><polygon fill="#181818" points="671,524.73,675,515.73,671,519.73,667,515.73,671,524.73" style="stroke:#181818;stroke-width:1.0;"/></g><!--link RenderContext to ReadingsFile--><g id="link_RenderContext_ReadingsFile"><path codeLine="57" d="M720.87,404.84 C755.52,443.9 797.2384,490.9115 830.2284,528.1015 " fill="none" id="RenderContext-to-ReadingsFile" style="stroke:#181818;stroke-width:1.0;"/><polygon fill="#181818" points="834.21,532.59,831.2299,523.2028,830.892,528.8496,825.2452,528.5116,834.21,532.59" style="stroke:#181818;stroke-width:1.0;"/><text fill="#000000" font-family="sans-serif" font-size="13" lengthAdjust="spacing" textLength="62" x="799.51" y="491.4084">data[files]</text></g><!--SRC=[RLF1Yjj03BtxAyIU9jiiz1oMGBjBeL0eDCTIZ3nMd26JiPcHsNNB_djbZvnrihdOqkZvZVIUd8ukT1Zn1DPZIb-Oewjwfk-s3Jltb-1paSwG3kqH6zhnu0aYMSRGU2eAFOUxNnHgYl3KHhe3J5C0_mh8v93B0XYF03x5AJTxvocjmHum1F8IrSYuoX3h2KFV6KqJSLd9RVAXqVUYud5eUouJHsHg1fFp1Q3jsBKX6NsFbRT27YumnJrQqXQ_PkgvpueQ5ygzQ_f89fITRrcwJ0UCLBxEmR1QWaUCSS8bTNRiQGttzySNZ4rId7U1Z5I7DNYio0lFgAjMvVRCiSYrWNcUG_jYBbKgRHz5KpQtnMj40KMySq_pPtj-J7BjL3ruVCHgbDBoTdlbc4eldhMYt2jdehUFc_0iJawRC0OVDk5djc4cLq6NoQ23eBTbJPunvOEQaXMVaTFb29dtANSryqxxfKIwOyeYJUL85-AQ36iNclHDlf-vHWtPdQXKfWjjyr4vqXfD5kNGdoWwEyEIEQjs_YyU7hPN8soWwfslqoNcogaDY3RKI9907LhT8ftNUWDz4aMAowlUSUhBpVf2aitqe_wUvFrJ_0S0]--></g></svg>