<?xml version="1.0" encoding="us-ascii" standalone="no"?><svg xmlns="http://www.w3.org/2000/svg" xmlns:xlink="http://www.w3.org/1999/xlink" contentStyleType="text/css" height="412px" preserveAspectRatio="none" style="width:548px;height:412px;background:#FFFFFF;" version="1.1" viewBox="0 0 548 412" width="548px" zoomAndPan="magnify"><defs/><g><!--class DeltaMixin--><g id="elem_DeltaMixin"><rect codeLine="3" fill="#F1F1F1" height="89.5977" id="DeltaMixin" rx="2.5" ry="2.5" style="stroke:#181818;stroke-width:0.5;" width="198" x="7" y="149.1"/><ellipse cx="65.25" cy="169.4105" fill="#ADD1B2" rx="11" ry="11" style="stroke:#181818;stroke-width:1.0;"/><path d="M67.7231,175.5536 Q67.1421,175.8524 66.5029,176.0019 Q65.8638,176.1513 65.1582,176.1513 Q62.6514,176.1513 61.3315,174.4994 Q60.0117,172.8476 60.0117,169.7265 Q60.0117,166.5971 61.3315,164.9452 Q62.6514,163.2934 65.1582,163.2934 Q65.8638,163.2934 66.5112,163.4428 Q67.1587,163.5922 67.7231,163.891 L67.7231,166.6137 Q67.0923,166.0326 66.4988,165.7628 Q65.9053,165.4931 65.2744,165.4931 Q63.9297,165.4931 63.2449,166.5597 Q62.5601,167.6264 62.5601,169.7265 Q62.5601,171.8183 63.2449,172.8849 Q63.9297,173.9516 65.2744,173.9516 Q65.9053,173.9516 66.4988,173.6818 Q67.0923,173.412 67.7231,172.831 Z " fill="#000000"/><text fill="#000000" font-family="sans-serif" font-size="12" font-style="italic" lengthAdjust="spacing" textLength="59" x="92.75" y="165.7016">&#171;abstract&#187;</text><text fill="#000000" font-family="sans-serif" font-size="14" lengthAdjust="spacing" textLength="73" x="85.75" y="181.768">DeltaMixin</text><line style="stroke:#181818;stroke-width:0.5;" x1="8" x2="204" y1="189.7211" y2="189.7211"/><line style="stroke:#181818;stroke-width:0.5;" x1="8" x2="204" y1="197.7211" y2="197.7211"/><text fill="#000000" font-family="sans-serif" font-size="14" lengthAdjust="spacing" textLength="162" x="13" y="215.2563">+calculate_delta(s1, s2)</text><text fill="#000000" font-family="sans-serif" font-size="14" lengthAdjust="spacing" textLength="186" x="13" y="231.7445">+plot_delta(x, y) &#171;abstract&#187;</text></g><!--class MatplotlibBackend--><g id="elem_MatplotlibBackend"><rect codeLine="8" fill="#F1F1F1" height="48" id="MatplotlibBackend" rx="2.5" ry="2.5" style="stroke:#181818;stroke-width:0.5;" width="158" x="27" y="7"/><ellipse cx="42" cy="23" fill="#ADD1B2" rx="11" ry="11" style="stroke:#181818;stroke-width:1.0;"/><path d="M44.4731,29.1431 Q43.8921,29.4419 43.2529,29.5913 Q42.6138,29.7407 41.9082,29.7407 Q39.4014,29.7407 38.0815,28.0889 Q36.7617,26.437 36.7617,23.3159 Q36.7617,20.1865 38.0815,18.5347 Q39.4014,16.8828 41.9082,16.8828 Q42.6138,16.8828 43.2612,17.0322 Q43.9087,17.1816 44.4731,17.4805 L44.4731,20.2031 Q43.8423,19.6221 43.2488,19.3523 Q42.6553,19.0825 42.0244,19.0825 Q40.6797,19.0825 39.9949,20.1492 Q39.3101,21.2158 39.3101,23.3159 Q39.3101,25.4077 39.9949,26.4744 Q40.6797,27.541 42.0244,27.541 Q42.6553,27.541 43.2488,27.2712 Q43.8423,27.0015 44.4731,26.4204 Z " fill="#000000"/><text fill="#000000" font-family="sans-serif" font-size="14" lengthAdjust="spacing" textLength="126" x="56" y="28.291">MatplotlibBackend</text><line style="stroke:#181818;stroke-width:0.5;" x1="28" x2="184" y1="39" y2="39"/><line style="stroke:#181818;stroke-width:0.5;" x1="28" x2="184" y1="47" y2="47"/></g><!--class interpolate_series--><g id="elem_interpolate_series"><rect codeLine="9" fill="#F1F1F1" height="56.6211" id="interpolate_series" rx="2.5" ry="2.5" style="stroke:#181818;stroke-width:0.5;" width="154" x="29" y="348.8"/><ellipse cx="44" cy="369.1105" fill="#ADD1B2" rx="11" ry="11" style="stroke:#181818;stroke-width:1.0;"/><path d="M46.4731,375.2536 Q45.8921,375.5524 45.2529,375.7019 Q44.6138,375.8513 43.9082,375.8513 Q41.4014,375.8513 40.0815,374.1994 Q38.7617,372.5476 38.7617,369.4265 Q38.7617,366.2971 40.0815,364.6452 Q41.4014,362.9934 43.9082,362.9934 Q44.6138,362.9934 45.2612,363.1428 Q45.9087,363.2922 46.4731,363.591 L46.4731,366.3137 Q45.8423,365.7326 45.2488,365.4628 Q44.6553,365.1931 44.0244,365.1931 Q42.6797,365.1931 41.9949,366.2597 Q41.3101,367.3264 41.3101,369.4265 Q41.3101,371.5183 41.9949,372.5849 Q42.6797,373.6516 44.0244,373.6516 Q44.6553,373.6516 45.2488,373.3818 Q45.8423,373.112 46.4731,372.531 Z " fill="#000000"/><text fill="#000000" font-family="sans-serif" font-size="12" font-style="italic" lengthAdjust="spacing" textLength="57" x="90.5" y="365.4016">&#171;function&#187;</text><text fill="#000000" font-family="sans-serif" font-size="14" lengthAdjust="spacing" textLength="122" x="58" y="381.468">interpolate_series</text><line style="stroke:#181818;stroke-width:0.5;" x1="30" x2="182" y1="389.4211" y2="389.4211"/><line style="stroke:#181818;stroke-width:0.5;" x1="30" x2="182" y1="397.4211" y2="397.4211"/></g><g id="elem_GMN7"><path d="M240.5,116 L240.5,189.9 L205.36,193.9 L240.5,197.9 L240.5,271.7949 A0,0 0 0 0 240.5,271.7949 L541.5,271.7949 A0,0 0 0 0 541.5,271.7949 L541.5,126 L531.5,116 L240.5,116 A0,0 0 0 0 240.5,116 " fill="#FEFFDD" style="stroke:#181818;stroke-width:0.5;"/><path d="M531.5,116 L531.5,126 L541.5,126 L531.5,116 " fill="#FEFFDD" style="stroke:#181818;stroke-width:0.5;"/><text fill="#000000" font-family="sans-serif" font-size="13" lengthAdjust="spacing" textLength="171" x="246.5" y="133.5684">plot_delta(...) is ABSTRACT.</text><text fill="#000000" font-family="sans-serif" font-size="13" lengthAdjust="spacing" textLength="224" x="246.5" y="148.8789">Every backend that uses DeltaMixin</text><text fill="#000000" font-family="sans-serif" font-size="13" lengthAdjust="spacing" textLength="182" x="246.5" y="164.1895">MUST IMPLEMENT plot_delta.</text><text fill="#000000" font-family="sans-serif" font-size="13" lengthAdjust="spacing" textLength="4" x="246.5" y="179.5">&#160;</text><line style="stroke:#181818;stroke-width:1.0;" x1="241.5" x2="540.5" y1="182.2422" y2="182.2422"/><text fill="#000000" font-family="sans-serif" font-size="13" lengthAdjust="spacing" textLength="4" x="246.5" y="198.8105">&#160;</text><text fill="#000000" font-family="sans-serif" font-size="13" lengthAdjust="spacing" textLength="98" x="246.5" y="214.1211">calculate_delta:</text><text fill="#000000" font-family="sans-serif" font-size="13" lengthAdjust="spacing" textLength="280" x="246.5" y="229.4316">- interpolates s1/s2 to a common time base</text><text fill="#000000" font-family="sans-serif" font-size="13" lengthAdjust="spacing" textLength="129" x="246.5" y="244.7422">- computes abs_diff</text><text fill="#000000" font-family="sans-serif" font-size="13" lengthAdjust="spacing" textLength="183" x="246.5" y="260.0527">- calls plot_delta(x, abs_diff)</text></g><!--link MatplotlibBackend to DeltaMixin--><g id="link_MatplotlibBackend_DeltaMixin"><path codeLine="11" d="M106,55.4 C106,79.8 106,100.64 106,130.82 " fill="none" id="MatplotlibBackend-to-DeltaMixin" style="stroke:#181818;stroke-width:1.0;"/><polygon fill="none" points="106,148.82,112,130.82,100,130.82,106,148.82" style="stroke:#181818;stroke-width:1.0;"/></g><!--link DeltaMixin to interpolate_series--><g id="link_DeltaMixin_interpolate_series"><path codeLine="12" d="M106,238.77 C106,272.91 106,313.26 106,342.42 " fill="none" id="DeltaMixin-to-interpolate_series" style="stroke:#181818;stroke-width:1.0;stroke-dasharray:7.0,7.0;"/><polygon fill="#181818" points="106,348.42,110,339.42,106,343.42,102,339.42,106,348.42" style="stroke:#181818;stroke-width:1.0;"/><text fill="#000000" font-family="sans-serif" font-size="13" lengthAdjust="spacing" textLength="29" x="107" y="315.3684">uses</text></g><!--SRC=[RP3DJiCm48Jl-nHx9A8njCUgYjH23vK8GZISAyTrg5N7ZhmRrFBpxjXL4QdWEZlxxUpGthXE1jcYif9epXnCtRDUAU_MvbtZBS1fWlVQiYpDmJYSpMHD7AJYei0FGBnMqghUIjQRRR9TqNY4DCdIgBEUp-fXXCViOXk-Vl2bvEIqfbv8jTTkUzQDOnqwVsAJ3aPJ13IzKsoyYm3uiuXv_baCui8WkH35VyGfzgG9m7dM6CphZj4tGyJW2I54XePmlbXNp_ExIi3oJOSZrkVhl9DymWttovTrXQlowM5PBXyh_CK9W3oF7LpsDuLy69EGnZSqGVOeKVcszGxPj3hU91sjKUhwP8l5RhQcQP8chIMyBFzdd44Acfw5Rm00]--></g></svg>