<?xml version="1.0" encoding="us-ascii" standalone="no"?><svg xmlns="http://www.w3.org/2000/svg" xmlns:xlink="http://www.w3.org/1999/xlink" contentStyleType="text/css" height="553px" preserveAspectRatio="none" style="width:621px;height:553px;background:#FFFFFF;" version="1.1" viewBox="0 0 621 553" width="621px" zoomAndPan="magnify"><defs/><g><!--class RenderBackend--><g id="elem_RenderBackend"><rect codeLine="4" fill="#F1F1F1" height="97.4648" id="RenderBackend" rx="2.5" ry="2.5" style="stroke:#181818;stroke-width:0.5;" width="251" x="7" y="315.08"/><ellipse cx="75.25" cy="331.08" fill="#ADD1B2" rx="11" ry="11" style="stroke:#181818;stroke-width:1.0;"/><path d="M77.7231,337.2231 Q77.1421,337.5219 76.5029,337.6713 Q75.8638,337.8207 75.1582,337.8207 Q72.6514,337.8207 71.3315,336.1689 Q70.0117,334.517 70.0117,331.3959 Q70.0117,328.2665 71.3315,326.6147 Q72.6514,324.9628 75.1582,324.9628 Q75.8638,324.9628 76.5112,325.1122 Q77.1587,325.2616 77.7231,325.5605 L77.7231,328.2831 Q77.0923,327.7021 76.4988,327.4323 Q75.9053,327.1625 75.2744,327.1625 Q73.9297,327.1625 73.2449,328.2292 Q72.5601,329.2958 72.5601,331.3959 Q72.5601,333.4877 73.2449,334.5544 Q73.9297,335.621 75.2744,335.621 Q75.9053,335.621 76.4988,335.3512 Q77.0923,335.0815 77.7231,334.5004 Z " fill="#000000"/><text fill="#000000" font-family="sans-serif" font-size="14" lengthAdjust="spacing" textLength="106" x="95.75" y="336.371">RenderBackend</text><line style="stroke:#181818;stroke-width:0.5;" x1="8" x2="257" y1="347.08" y2="347.08"/><text fill="#000000" font-family="sans-serif" font-size="14" lengthAdjust="spacing" textLength="239" x="13" y="364.6152">-_plugins : dict[event -&gt; callbacks]</text><line style="stroke:#181818;stroke-width:0.5;" x1="8" x2="257" y1="371.5683" y2="371.5683"/><text fill="#000000" font-family="sans-serif" font-size="14" lengthAdjust="spacing" textLength="225" x="13" y="389.1034">+register_plugin(event, callback)</text><text fill="#000000" font-family="sans-serif" font-size="14" lengthAdjust="spacing" textLength="218" x="13" y="405.5917">+_run_plugins(event, **kwargs)</text></g><!--class MatplotlibBackend--><g id="elem_MatplotlibBackend"><rect codeLine="10" fill="#F1F1F1" height="80.9766" id="MatplotlibBackend" rx="2.5" ry="2.5" style="stroke:#181818;stroke-width:0.5;" width="158" x="26.5" y="7"/><ellipse cx="41.5" cy="23" fill="#ADD1B2" rx="11" ry="11" style="stroke:#181818;stroke-width:1.0;"/><path d="M43.9731,29.1431 Q43.3921,29.4419 42.7529,29.5913 Q42.1138,29.7407 41.4082,29.7407 Q38.9014,29.7407 37.5815,28.0889 Q36.2617,26.437 36.2617,23.3159 Q36.2617,20.1865 37.5815,18.5347 Q38.9014,16.8828 41.4082,16.8828 Q42.1138,16.8828 42.7612,17.0322 Q43.4087,17.1816 43.9731,17.4805 L43.9731,20.2031 Q43.3423,19.6221 42.7488,19.3523 Q42.1553,19.0825 41.5244,19.0825 Q40.1797,19.0825 39.4949,20.1492 Q38.8101,21.2158 38.8101,23.3159 Q38.8101,25.4077 39.4949,26.4744 Q40.1797,27.541 41.5244,27.541 Q42.1553,27.541 42.7488,27.2712 Q43.3423,27.0015 43.9731,26.4204 Z " fill="#000000"/><text fill="#000000" font-family="sans-serif" font-size="14" lengthAdjust="spacing" textLength="126" x="55.5" y="28.291">MatplotlibBackend</text><line style="stroke:#181818;stroke-width:0.5;" x1="27.5" x2="183.5" y1="39" y2="39"/><line style="stroke:#181818;stroke-width:0.5;" x1="27.5" x2="183.5" y1="47" y2="47"/><text fill="#000000" font-family="sans-serif" font-size="14" lengthAdjust="spacing" textLength="120" x="32.5" y="64.5352">+begin_figure(...)</text><text fill="#000000" font-family="sans-serif" font-size="14" lengthAdjust="spacing" textLength="106" x="32.5" y="81.0234">+begin_plot(...)</text></g><!--class PluginCallback--><g id="elem_PluginCallback"><rect codeLine="15" fill="#F1F1F1" height="56.6211" id="PluginCallback" rx="2.5" ry="2.5" style="stroke:#181818;stroke-width:0.5;" width="133" x="66" y="489.55"/><ellipse cx="81" cy="509.8605" fill="#ADD1B2" rx="11" ry="11" style="stroke:#181818;stroke-width:1.0;"/><path d="M83.4731,516.0036 Q82.8921,516.3024 82.2529,516.4519 Q81.6138,516.6013 80.9082,516.6013 Q78.4014,516.6013 77.0815,514.9494 Q75.7617,513.2976 75.7617,510.1765 Q75.7617,507.0471 77.0815,505.3952 Q78.4014,503.7434 80.9082,503.7434 Q81.6138,503.7434 82.2612,503.8928 Q82.9087,504.0422 83.4731,504.341 L83.4731,507.0637 Q82.8423,506.4826 82.2488,506.2128 Q81.6553,505.9431 81.0244,505.9431 Q79.6797,505.9431 78.9949,507.0097 Q78.3101,508.0764 78.3101,510.1765 Q78.3101,512.2683 78.9949,513.3349 Q79.6797,514.4016 81.0244,514.4016 Q81.6553,514.4016 82.2488,514.1318 Q82.8423,513.862 83.4731,513.281 Z " fill="#000000"/><text fill="#000000" font-family="sans-serif" font-size="12" font-style="italic" lengthAdjust="spacing" textLength="56" x="117.5" y="506.1516">&#171;callable&#187;</text><text fill="#000000" font-family="sans-serif" font-size="14" lengthAdjust="spacing" textLength="101" x="95" y="522.218">PluginCallback</text><line style="stroke:#181818;stroke-width:0.5;" x1="67" x2="198" y1="530.1711" y2="530.1711"/><line style="stroke:#181818;stroke-width:0.5;" x1="67" x2="198" y1="538.1711" y2="538.1711"/></g><!--class lifecycle--><g id="elem_lifecycle"><rect codeLine="17" fill="#F1F1F1" height="73.1094" id="lifecycle" rx="2.5" ry="2.5" style="stroke:#181818;stroke-width:0.5;" width="230" x="129.5" y="164.97"/><ellipse cx="208.25" cy="185.2805" fill="#ADD1B2" rx="11" ry="11" style="stroke:#181818;stroke-width:1.0;"/><path d="M210.7231,191.4236 Q210.1421,191.7224 209.5029,191.8719 Q208.8638,192.0213 208.1582,192.0213 Q205.6514,192.0213 204.3315,190.3694 Q203.0117,188.7176 203.0117,185.5965 Q203.0117,182.4671 204.3315,180.8152 Q205.6514,179.1634 208.1582,179.1634 Q208.8638,179.1634 209.5112,179.3128 Q210.1587,179.4622 210.7231,179.761 L210.7231,182.4837 Q210.0923,181.9026 209.4988,181.6328 Q208.9053,181.3631 208.2744,181.3631 Q206.9297,181.3631 206.2449,182.4297 Q205.5601,183.4964 205.5601,185.5965 Q205.5601,187.6883 206.2449,188.7549 Q206.9297,189.8216 208.2744,189.8216 Q208.9053,189.8216 209.4988,189.5518 Q210.0923,189.282 210.7231,188.701 Z " fill="#000000"/><text fill="#000000" font-family="sans-serif" font-size="12" font-style="italic" lengthAdjust="spacing" textLength="68" x="226.75" y="181.5716">&#171;decorator&#187;</text><text fill="#000000" font-family="sans-serif" font-size="14" lengthAdjust="spacing" textLength="54" x="233.75" y="197.638">lifecycle</text><line style="stroke:#181818;stroke-width:0.5;" x1="130.5" x2="358.5" y1="205.5911" y2="205.5911"/><line style="stroke:#181818;stroke-width:0.5;" x1="130.5" x2="358.5" y1="213.5911" y2="213.5911"/><text fill="#000000" font-family="sans-serif" font-size="14" lengthAdjust="spacing" textLength="218" x="135.5" y="231.1262">+wrapper(self, *args, **kwargs)</text></g><g id="elem_GMN10"><path d="M293,328.2 L293,359.82 L258.26,363.82 L293,367.82 L293,399.4422 A0,0 0 0 0 293,399.4422 L578,399.4422 A0,0 0 0 0 578,399.4422 L578,338.2 L568,328.2 L293,328.2 A0,0 0 0 0 293,328.2 " fill="#FEFFDD" style="stroke:#181818;stroke-width:0.5;"/><path d="M568,328.2 L568,338.2 L578,338.2 L568,328.2 " fill="#FEFFDD" style="stroke:#181818;stroke-width:0.5;"/><text fill="#000000" font-family="sans-serif" font-size="13" lengthAdjust="spacing" textLength="242" x="299" y="345.7684">register_plugin("post_begin_plot", cb):</text><text fill="#000000" font-family="sans-serif" font-size="13" lengthAdjust="spacing" textLength="264" x="299" y="361.0789">- stores cb in _plugins["post_begin_plot"]</text><text fill="#000000" font-family="sans-serif" font-size="13" lengthAdjust="spacing" textLength="128" x="299" y="376.3895">_run_plugins(event):</text><text fill="#000000" font-family="sans-serif" font-size="13" lengthAdjust="spacing" textLength="203" x="299" y="391.7">- invokes all callbacks for event</text></g><g id="elem_GMN13"><path d="M394.5,165.91 L394.5,197.53 L359.77,201.53 L394.5,205.53 L394.5,237.1522 A0,0 0 0 0 394.5,237.1522 L614.5,237.1522 A0,0 0 0 0 614.5,237.1522 L614.5,175.91 L604.5,165.91 L394.5,165.91 A0,0 0 0 0 394.5,165.91 " fill="#FEFFDD" style="stroke:#181818;stroke-width:0.5;"/><path d="M604.5,165.91 L604.5,175.91 L614.5,175.91 L604.5,165.91 " fill="#FEFFDD" style="stroke:#181818;stroke-width:0.5;"/><text fill="#000000" font-family="sans-serif" font-size="13" lengthAdjust="spacing" textLength="62" x="400.5" y="183.4784">wrapper():</text><text fill="#000000" font-family="sans-serif" font-size="13" lengthAdjust="spacing" textLength="191" x="400.5" y="198.7889">- _run_plugins("pre_" + event)</text><text fill="#000000" font-family="sans-serif" font-size="13" lengthAdjust="spacing" textLength="170" x="400.5" y="214.0995">- call real backend method</text><text fill="#000000" font-family="sans-serif" font-size="13" lengthAdjust="spacing" textLength="199" x="400.5" y="229.41">- _run_plugins("post_" + event)</text></g><!--link RenderBackend to PluginCallback--><g id="link_RenderBackend_PluginCallback"><path codeLine="21" d="M132.5,412.92 C132.5,438.15 132.5,462.15 132.5,483.41 " fill="none" id="RenderBackend-to-PluginCallback" style="stroke:#181818;stroke-width:1.0;stroke-dasharray:7.0,7.0;"/><polygon fill="#181818" points="132.5,489.41,136.5,480.41,132.5,484.41,128.5,480.41,132.5,489.41" style="stroke:#181818;stroke-width:1.0;"/><text fill="#000000" font-family="sans-serif" font-size="13" lengthAdjust="spacing" textLength="102" x="133.5" y="456.1184">stores callbacks</text></g><!--link MatplotlibBackend to RenderBackend--><g id="link_MatplotlibBackend_RenderBackend"><path codeLine="22" d="M105.56,88.16 C105.95,126.59 107.43,186.45 112.5,238.08 C115,263.51 116.2726,273.8968 120.2926,296.9868 " fill="none" id="MatplotlibBackend-to-RenderBackend" style="stroke:#181818;stroke-width:1.0;"/><polygon fill="none" points="123.38,314.72,126.2037,295.9576,114.3815,298.0159,123.38,314.72" style="stroke:#181818;stroke-width:1.0;"/></g><!--link MatplotlibBackend to lifecycle--><g id="link_MatplotlibBackend_lifecycle"><path codeLine="23" d="M142.02,88.43 C163.58,112.01 186.6024,137.1909 207.5024,160.0609 " fill="none" id="MatplotlibBackend-to-lifecycle" style="stroke:#181818;stroke-width:1.0;stroke-dasharray:7.0,7.0;"/><polygon fill="#181818" points="211.55,164.49,208.4314,155.1479,208.177,160.7991,202.5259,160.5447,211.55,164.49" style="stroke:#181818;stroke-width:1.0;"/><text fill="#000000" font-family="sans-serif" font-size="13" lengthAdjust="spacing" textLength="224" x="184.32" y="131.5384">@lifecycle(begin_figure/begin_plot)</text></g><!--link lifecycle to RenderBackend--><g id="link_lifecycle_RenderBackend"><path codeLine="24" d="M219.37,238.5 C203.63,261.02 186.5963,285.3915 169.4863,309.8815 " fill="none" id="lifecycle-to-RenderBackend" style="stroke:#181818;stroke-width:1.0;stroke-dasharray:7.0,7.0;"/><polygon fill="#181818" points="166.05,314.8,174.4835,309.7131,168.9136,310.7012,167.9255,305.1314,166.05,314.8" style="stroke:#181818;stroke-width:1.0;"/><text fill="#000000" font-family="sans-serif" font-size="13" lengthAdjust="spacing" textLength="204" x="199.53" y="281.6484">calls _run_plugins(pre_*/post_*)</text></g><!--SRC=[RPFBReCm44Nt_efHLe4KqZMAK1-hBYfLpJAAa746Ok7Oo7OIfOz_hqq21EWEp9cvT-uOKt5PKqqFm0GrvjbQpVEZnJUcv9f_8JmIqo4rPHKjSMql0a4ZirIM0WbfIk4JvGxrYsFS0tmJW2YhnR7aqa02Eyxi1ayeBKGfC2f4xaYpTTX2OycDHNt3vmtsq461Pp9zb6sx5WZ3wanrQGBosvfufxOMoWgUtnjPv4v1PWKlZnhdSHm7_Q77hqTTauz6vlKc3wkLTq9pWMdQ8e8No2xCvR1QxP0fJQtIQNfLEsjQrwZd1aNXN7gB8xF3hE8u7MicO5n3D7rIP3fQ5FsamzZ_WNpptcq2JztB_3wLPPz6G7hULm_D9eqb0uE5r1gpS5ahOxCm84Ggwou8B_SML35oE5xshAdgrMTkyNcGaAXB80SkePNQJFWjcTwDffxBawfS0sUtZn4AfQ5XY9_6EntxxQOdxIARTWELcPzu1ejhgy1zzWhkfw02ybjI1xHxjPjMUlztfPsDFm00]--></g></svg>