<?xml version="1.0" encoding="us-ascii" standalone="no"?><svg xmlns="http://www.w3.org/2000/svg" xmlns:xlink="http://www.w3.org/1999/xlink" contentStyleType="text/css" height="1198px" preserveAspectRatio="none" style="width:2078px;height:1198px;background:#FFFFFF;" version="1.1" viewBox="0 0 2078 1198" width="2078px" zoomAndPan="magnify"><defs/><g><text fill="#000000" font-family="sans-serif" font-size="14" font-weight="bold" lengthAdjust="spacing" textLength="260" x="902" y="23.5352">Graph Insights &#8212; Rendering System</text><!--cluster UI--><g id="cluster_UI"><rect fill="none" height="99" rx="2.5" ry="2.5" style="stroke:#000000;stroke-width:1.5;" width="380" x="1246" y="44.4883"/><text fill="#000000" font-family="sans-serif" font-size="14" font-weight="bold" lengthAdjust="spacing" textLength="83" x="1394.5" y="60.0234">UI / Callers</text></g><!--cluster Core--><g id="cluster_Core"><rect fill="none" height="471.32" rx="2.5" ry="2.5" style="stroke:#000000;stroke-width:1.5;" width="556" x="801" y="192.4883"/><text fill="#000000" font-family="sans-serif" font-size="14" font-weight="bold" lengthAdjust="spacing" textLength="88" x="1035" y="208.0234">Render Core</text></g><!--cluster Layouts--><g id="cluster_Layouts"><rect fill="none" height="115.48" rx="2.5" ry="2.5" style="stroke:#000000;stroke-width:1.5;" width="460" x="592" y="795.2583"/><text fill="#000000" font-family="sans-serif" font-size="14" font-weight="bold" lengthAdjust="spacing" textLength="56" x="794" y="810.7934">Layouts</text></g><!--cluster Backends--><g id="cluster_Backends"><rect fill="none" height="479.95" rx="2.5" ry="2.5" style="stroke:#000000;stroke-width:1.5;" width="561" x="7" y="712.8083"/><text fill="#000000" font-family="sans-serif" font-size="14" font-weight="bold" lengthAdjust="spacing" textLength="67" x="254" y="728.3434">Backends</text></g><!--cluster Plugins--><g id="cluster_Plugins"><rect fill="none" height="424.44" rx="2.5" ry="2.5" style="stroke:#000000;stroke-width:1.5;" width="164" x="1463" y="482.3683"/><text fill="#000000" font-family="sans-serif" font-size="14" font-weight="bold" lengthAdjust="spacing" textLength="54" x="1518" y="497.9034">Plugins</text></g><!--cluster Data--><g id="cluster_Data"><rect fill="none" height="486.08" rx="2.5" ry="2.5" style="stroke:#000000;stroke-width:1.5;" width="410" x="1662" y="449.3983"/><text fill="#000000" font-family="sans-serif" font-size="14" font-weight="bold" lengthAdjust="spacing" textLength="88" x="1823" y="464.9334">Render Data</text></g><!--class MainWindow--><g id="elem_MainWindow"><rect codeLine="6" fill="#F1F1F1" height="48" id="MainWindow" rx="2.5" ry="2.5" style="stroke:#181818;stroke-width:0.5;" width="119" x="1262.5" y="79.4883"/><ellipse cx="1277.5" cy="95.4883" fill="#ADD1B2" rx="11" ry="11" style="stroke:#181818;stroke-width:1.0;"/><path d="M1279.9731,101.6313 Q1279.3921,101.9302 1278.7529,102.0796 Q1278.1138,102.229 1277.4082,102.229 Q1274.9014,102.229 1273.5815,100.5771 Q1272.2617,98.9253 1272.2617,95.8042 Q1272.2617,92.6748 1273.5815,91.0229 Q1274.9014,89.3711 1277.4082,89.3711 Q1278.1138,89.3711 1278.7612,89.5205 Q1279.4087,89.6699 1279.9731,89.9688 L1279.9731,92.6914 Q1279.3423,92.1104 1278.7488,91.8406 Q1278.1553,91.5708 1277.5244,91.5708 Q1276.1797,91.5708 1275.4949,92.6375 Q1274.8101,93.7041 1274.8101,95.8042 Q1274.8101,97.896 1275.4949,98.9626 Q1276.1797,100.0293 1277.5244,100.0293 Q1278.1553,100.0293 1278.7488,99.7595 Q1279.3423,99.4897 1279.9731,98.9087 Z " fill="#000000"/><text fill="#000000" font-family="sans-serif" font-size="14" lengthAdjust="spacing" textLength="87" x="1291.5" y="100.7793">MainWindow</text><line style="stroke:#181818;stroke-width:0.5;" x1="1263.5" x2="1380.5" y1="111.4883" y2="111.4883"/><line style="stroke:#181818;stroke-width:0.5;" x1="1263.5" x2="1380.5" y1="119.4883" y2="119.4883"/></g><!--class AnalysisOverviewDialog--><g id="elem_AnalysisOverviewDialog"><rect codeLine="7" fill="#F1F1F1" height="48" id="AnalysisOverviewDialog" rx="2.5" ry="2.5" style="stroke:#181818;stroke-width:0.5;" width="194" x="1416" y="79.4883"/><ellipse cx="1431" cy="95.4883" fill="#ADD1B2" rx="11" ry="11" style="stroke:#181818;stroke-width:1.0;"/><path d="M1433.4731,101.6313 Q1432.8921,101.9302 1432.2529,102.0796 Q1431.6138,102.229 1430.9082,102.229 Q1428.4014,102.229 1427.0815,100.5771 Q1425.7617,98.9253 1425.7617,95.8042 Q1425.7617,92.6748 1427.0815,91.0229 Q1428.4014,89.3711 1430.9082,89.3711 Q1431.6138,89.3711 1432.2612,89.5205 Q1432.9087,89.6699 1433.4731,89.9688 L1433.4731,92.6914 Q1432.8423,92.1104 1432.2488,91.8406 Q1431.6553,91.5708 1431.0244,91.5708 Q1429.6797,91.5708 1428.9949,92.6375 Q1428.3101,93.7041 1428.3101,95.8042 Q1428.3101,97.896 1428.9949,98.9626 Q1429.6797,100.0293 1431.0244,100.0293 Q1431.6553,100.0293 1432.2488,99.7595 Q1432.8423,99.4897 1433.4731,98.9087 Z " fill="#000000"/><text fill="#000000" font-family="sans-serif" font-size="14" lengthAdjust="spacing" textLength="162" x="1445" y="100.7793">AnalysisOverviewDialog</text><line style="stroke:#181818;stroke-width:0.5;" x1="1417" x2="1609" y1="111.4883" y2="111.4883"/><line style="stroke:#181818;stroke-width:0.5;" x1="1417" x2="1609" y1="119.4883" y2="119.4883"/></g><!--class Renderer--><g id="elem_Renderer"><rect codeLine="11" fill="#F1F1F1" height="130.4414" id="Renderer" rx="2.5" ry="2.5" style="stroke:#181818;stroke-width:0.5;" width="214" x="1126" y="227.4883"/><ellipse cx="1197.25" cy="243.4883" fill="#ADD1B2" rx="11" ry="11" style="stroke:#181818;stroke-width:1.0;"/><path d="M1199.7231,249.6313 Q1199.1421,249.9302 1198.5029,250.0796 Q1197.8638,250.229 1197.1582,250.229 Q1194.6514,250.229 1193.3315,248.5771 Q1192.0117,246.9253 1192.0117,243.8042 Q1192.0117,240.6748 1193.3315,239.0229 Q1194.6514,237.3711 1197.1582,237.3711 Q1197.8638,237.3711 1198.5112,237.5205 Q1199.1587,237.6699 1199.7231,237.9688 L1199.7231,240.6914 Q1199.0923,240.1104 1198.4988,239.8406 Q1197.9053,239.5708 1197.2744,239.5708 Q1195.9297,239.5708 1195.2449,240.6375 Q1194.5601,241.7041 1194.5601,243.8042 Q1194.5601,245.896 1195.2449,246.9626 Q1195.9297,248.0293 1197.2744,248.0293 Q1197.9053,248.0293 1198.4988,247.7595 Q1199.0923,247.4897 1199.7231,246.9087 Z " fill="#000000"/><text fill="#000000" font-family="sans-serif" font-size="14" lengthAdjust="spacing" textLength="63" x="1217.75" y="248.7793">Renderer</text><line style="stroke:#181818;stroke-width:0.5;" x1="1127" x2="1339" y1="259.4883" y2="259.4883"/><line style="stroke:#181818;stroke-width:0.5;" x1="1127" x2="1339" y1="267.4883" y2="267.4883"/><text fill="#000000" font-family="sans-serif" font-size="14" lengthAdjust="spacing" textLength="202" x="1132" y="285.0234">+render(files, channels, data)</text><text fill="#000000" font-family="sans-serif" font-size="14" lengthAdjust="spacing" textLength="75" x="1132" y="301.5117">+cleanup()</text><text fill="#000000" font-family="sans-serif" font-size="14" lengthAdjust="spacing" textLength="164" x="1132" y="318">+set_backend(backend)</text><text fill="#000000" font-family="sans-serif" font-size="14" lengthAdjust="spacing" textLength="194" x="1132" y="334.4883">+set_layout_strategy(layout)</text><text fill="#000000" font-family="sans-serif" font-size="14" lengthAdjust="spacing" textLength="152" x="1132" y="350.9766">+set_options(options)</text></g><!--class RenderBackend--><g id="elem_RenderBackend"><rect codeLine="19" fill="#F1F1F1" height="212.8828" id="RenderBackend" rx="2.5" ry="2.5" style="stroke:#181818;stroke-width:0.5;" width="292" x="1049" y="434.9283"/><ellipse cx="1137.75" cy="450.9283" fill="#B4A7E5" rx="11" ry="11" style="stroke:#181818;stroke-width:1.0;"/><path d="M1134.1777,447.1934 L1134.1777,445.0352 L1141.5571,445.0352 L1141.5571,447.1934 L1139.0918,447.1934 L1139.0918,455.2701 L1141.5571,455.2701 L1141.5571,457.4283 L1134.1777,457.4283 L1134.1777,455.2701 L1136.6431,455.2701 L1136.6431,447.1934 Z " fill="#000000"/><text fill="#000000" font-family="sans-serif" font-size="14" font-style="italic" lengthAdjust="spacing" textLength="106" x="1158.25" y="456.2193">RenderBackend</text><line style="stroke:#181818;stroke-width:0.5;" x1="1050" x2="1340" y1="466.9283" y2="466.9283"/><line style="stroke:#181818;stroke-width:0.5;" x1="1050" x2="1340" y1="474.9283" y2="474.9283"/><text fill="#000000" font-family="sans-serif" font-size="14" lengthAdjust="spacing" textLength="225" x="1055" y="492.4634">+register_plugin(event, callback)</text><text fill="#000000" font-family="sans-serif" font-size="14" lengthAdjust="spacing" textLength="280" x="1055" y="508.9517">+begin_figure(n_plots, share_x, share_y)</text><text fill="#000000" font-family="sans-serif" font-size="14" lengthAdjust="spacing" textLength="238" x="1055" y="525.44">+begin_plot(index, title, **kwargs)</text><text fill="#000000" font-family="sans-serif" font-size="14" lengthAdjust="spacing" textLength="150" x="1055" y="541.9283">+line(x, y, label, style)</text><text fill="#000000" font-family="sans-serif" font-size="14" lengthAdjust="spacing" textLength="81" x="1055" y="558.4166">+end_plot()</text><text fill="#000000" font-family="sans-serif" font-size="14" lengthAdjust="spacing" textLength="95" x="1055" y="574.9048">+end_figure()</text><text fill="#000000" font-family="sans-serif" font-size="14" lengthAdjust="spacing" textLength="57" x="1055" y="591.3931">+show()</text><text fill="#000000" font-family="sans-serif" font-size="14" lengthAdjust="spacing" textLength="132" x="1055" y="607.8814">+cleanup_current()</text><text fill="#000000" font-family="sans-serif" font-size="14" lengthAdjust="spacing" textLength="75" x="1055" y="624.3697">+cleanup()</text><text fill="#000000" font-family="sans-serif" font-size="14" lengthAdjust="spacing" textLength="134" x="1055" y="640.858">+get_current_plot()</text></g><!--class LayoutStrategy--><g id="elem_LayoutStrategy"><rect codeLine="32" fill="#F1F1F1" height="73.1094" id="LayoutStrategy" rx="2.5" ry="2.5" style="stroke:#181818;stroke-width:0.5;" width="197" x="816.5" y="504.8183"/><ellipse cx="860.3" cy="525.1288" fill="#ADD1B2" rx="11" ry="11" style="stroke:#181818;stroke-width:1.0;"/><path d="M862.7731,531.2719 Q862.1921,531.5707 861.5529,531.7201 Q860.9138,531.8696 860.2082,531.8696 Q857.7014,531.8696 856.3815,530.2177 Q855.0617,528.5658 855.0617,525.4447 Q855.0617,522.3154 856.3815,520.6635 Q857.7014,519.0116 860.2082,519.0116 Q860.9138,519.0116 861.5612,519.1611 Q862.2087,519.3105 862.7731,519.6093 L862.7731,522.332 Q862.1423,521.7509 861.5488,521.4811 Q860.9553,521.2113 860.3244,521.2113 Q858.9797,521.2113 858.2949,522.278 Q857.6101,523.3446 857.6101,525.4447 Q857.6101,527.5365 858.2949,528.6032 Q858.9797,529.6698 860.3244,529.6698 Q860.9553,529.6698 861.5488,529.4001 Q862.1423,529.1303 862.7731,528.5492 Z " fill="#000000"/><text fill="#000000" font-family="sans-serif" font-size="12" font-style="italic" lengthAdjust="spacing" textLength="59" x="901.7" y="521.4198">&#171;abstract&#187;</text><text fill="#000000" font-family="sans-serif" font-size="14" lengthAdjust="spacing" textLength="101" x="880.7" y="537.4862">LayoutStrategy</text><line style="stroke:#181818;stroke-width:0.5;" x1="817.5" x2="1012.5" y1="545.4394" y2="545.4394"/><line style="stroke:#181818;stroke-width:0.5;" x1="817.5" x2="1012.5" y1="553.4394" y2="553.4394"/><text fill="#000000" font-family="sans-serif" font-size="14" lengthAdjust="spacing" textLength="185" x="822.5" y="570.9745">+render(backend, context)</text></g><!--class PerFilePlot--><g id="elem_PerFilePlot"><rect codeLine="38" fill="#F1F1F1" height="64.4883" id="PerFilePlot" rx="2.5" ry="2.5" style="stroke:#181818;stroke-width:0.5;" width="197" x="839.5" y="830.2583"/><ellipse cx="897.75" cy="846.2583" fill="#ADD1B2" rx="11" ry="11" style="stroke:#181818;stroke-width:1.0;"/><path d="M900.2231,852.4013 Q899.6421,852.7002 899.0029,852.8496 Q898.3638,852.999 897.6582,852.999 Q895.1514,852.999 893.8315,851.3471 Q892.5117,849.6953 892.5117,846.5742 Q892.5117,843.4448 893.8315,841.7929 Q895.1514,840.1411 897.6582,840.1411 Q898.3638,840.1411 899.0112,840.2905 Q899.6587,840.4399 900.2231,840.7388 L900.2231,843.4614 Q899.5923,842.8804 898.9988,842.6106 Q898.4053,842.3408 897.7744,842.3408 Q896.4297,842.3408 895.7449,843.4075 Q895.0601,844.4741 895.0601,846.5742 Q895.0601,848.666 895.7449,849.7326 Q896.4297,850.7993 897.7744,850.7993 Q898.4053,850.7993 898.9988,850.5295 Q899.5923,850.2597 900.2231,849.6787 Z " fill="#000000"/><text fill="#000000" font-family="sans-serif" font-size="14" lengthAdjust="spacing" textLength="72" x="918.25" y="851.5493">PerFilePlot</text><line style="stroke:#181818;stroke-width:0.5;" x1="840.5" x2="1035.5" y1="862.2583" y2="862.2583"/><line style="stroke:#181818;stroke-width:0.5;" x1="840.5" x2="1035.5" y1="870.2583" y2="870.2583"/><text fill="#000000" font-family="sans-serif" font-size="14" lengthAdjust="spacing" textLength="185" x="845.5" y="887.7934">+render(backend, context)</text></g><!--class PerChannelPlot--><g id="elem_PerChannelPlot"><rect codeLine="41" fill="#F1F1F1" height="64.4883" id="PerChannelPlot" rx="2.5" ry="2.5" style="stroke:#181818;stroke-width:0.5;" width="197" x="607.5" y="830.2583"/><ellipse cx="649.5" cy="846.2583" fill="#ADD1B2" rx="11" ry="11" style="stroke:#181818;stroke-width:1.0;"/><path d="M651.9731,852.4013 Q651.3921,852.7002 650.7529,852.8496 Q650.1138,852.999 649.4082,852.999 Q646.9014,852.999 645.5815,851.3471 Q644.2617,849.6953 644.2617,846.5742 Q644.2617,843.4448 645.5815,841.7929 Q646.9014,840.1411 649.4082,840.1411 Q650.1138,840.1411 650.7612,840.2905 Q651.4087,840.4399 651.9731,840.7388 L651.9731,843.4614 Q651.3423,842.8804 650.7488,842.6106 Q650.1553,842.3408 649.5244,842.3408 Q648.1797,842.3408 647.4949,843.4075 Q646.8101,844.4741 646.8101,846.5742 Q646.8101,848.666 647.4949,849.7326 Q648.1797,850.7993 649.5244,850.7993 Q650.1553,850.7993 650.7488,850.5295 Q651.3423,850.2597 651.9731,849.6787 Z " fill="#000000"/><text fill="#000000" font-family="sans-serif" font-size="14" lengthAdjust="spacing" textLength="105" x="669.5" y="851.5493">PerChannelPlot</text><line style="stroke:#181818;stroke-width:0.5;" x1="608.5" x2="803.5" y1="862.2583" y2="862.2583"/><line style="stroke:#181818;stroke-width:0.5;" x1="608.5" x2="803.5" y1="870.2583" y2="870.2583"/><text fill="#000000" font-family="sans-serif" font-size="14" lengthAdjust="spacing" textLength="185" x="613.5" y="887.7934">+render(backend, context)</text></g><!--class DeltaMixin--><g id="elem_DeltaMixin"><rect codeLine="47" fill="#F1F1F1" height="89.5977" id="DeltaMixin" rx="2.5" ry="2.5" style="stroke:#181818;stroke-width:0.5;" width="174" x="23" y="1070.6683"/><ellipse cx="69.25" cy="1090.9788" fill="#ADD1B2" rx="11" ry="11" style="stroke:#181818;stroke-width:1.0;"/><path d="M71.7231,1097.1219 Q71.1421,1097.4207 70.5029,1097.5701 Q69.8638,1097.7196 69.1582,1097.7196 Q66.6514,1097.7196 65.3315,1096.0677 Q64.0117,1094.4158 64.0117,1091.2947 Q64.0117,1088.1654 65.3315,1086.5135 Q66.6514,1084.8616 69.1582,1084.8616 Q69.8638,1084.8616 70.5112,1085.0111 Q71.1587,1085.1605 71.7231,1085.4593 L71.7231,1088.182 Q71.0923,1087.6009 70.4988,1087.3311 Q69.9053,1087.0613 69.2744,1087.0613 Q67.9297,1087.0613 67.2449,1088.128 Q66.5601,1089.1946 66.5601,1091.2947 Q66.5601,1093.3865 67.2449,1094.4532 Q67.9297,1095.5198 69.2744,1095.5198 Q69.9053,1095.5198 70.4988,1095.2501 Q71.0923,1094.9803 71.7231,1094.3992 Z " fill="#000000"/><text fill="#000000" font-family="sans-serif" font-size="12" font-style="italic" lengthAdjust="spacing" textLength="59" x="96.75" y="1087.2698">&#171;abstract&#187;</text><text fill="#000000" font-family="sans-serif" font-size="14" lengthAdjust="spacing" textLength="73" x="89.75" y="1103.3363">DeltaMixin</text><line style="stroke:#181818;stroke-width:0.5;" x1="24" x2="196" y1="1111.2894" y2="1111.2894"/><line style="stroke:#181818;stroke-width:0.5;" x1="24" x2="196" y1="1119.2894" y2="1119.2894"/><text fill="#000000" font-family="sans-serif" font-size="14" lengthAdjust="spacing" textLength="162" x="29" y="1136.8245">+calculate_delta(s1, s2)</text><text fill="#000000" font-family="sans-serif" font-size="14" lengthAdjust="spacing" textLength="113" x="29" y="1153.3128">+plot_delta(x, y)</text></g><!--class DescriptiveStatisticsMixin--><g id="elem_DescriptiveStatisticsMixin"><rect codeLine="52" fill="#F1F1F1" height="122.5742" id="DescriptiveStatisticsMixin" rx="2.5" ry="2.5" style="stroke:#181818;stroke-width:0.5;" width="320" x="232" y="1054.1883"/><ellipse cx="301.25" cy="1074.4988" fill="#ADD1B2" rx="11" ry="11" style="stroke:#181818;stroke-width:1.0;"/><path d="M303.7231,1080.6419 Q303.1421,1080.9407 302.5029,1081.0901 Q301.8638,1081.2396 301.1582,1081.2396 Q298.6514,1081.2396 297.3315,1079.5877 Q296.0117,1077.9358 296.0117,1074.8147 Q296.0117,1071.6854 297.3315,1070.0335 Q298.6514,1068.3816 301.1582,1068.3816 Q301.8638,1068.3816 302.5112,1068.5311 Q303.1587,1068.6805 303.7231,1068.9793 L303.7231,1071.702 Q303.0923,1071.1209 302.4988,1070.8511 Q301.9053,1070.5813 301.2744,1070.5813 Q299.9297,1070.5813 299.2449,1071.648 Q298.5601,1072.7146 298.5601,1074.8147 Q298.5601,1076.9065 299.2449,1077.9732 Q299.9297,1079.0398 301.2744,1079.0398 Q301.9053,1079.0398 302.4988,1078.7701 Q303.0923,1078.5003 303.7231,1077.9192 Z " fill="#000000"/><text fill="#000000" font-family="sans-serif" font-size="12" font-style="italic" lengthAdjust="spacing" textLength="59" x="378.75" y="1070.7898">&#171;abstract&#187;</text><text fill="#000000" font-family="sans-serif" font-size="14" lengthAdjust="spacing" textLength="173" x="321.75" y="1086.8563">DescriptiveStatisticsMixin</text><line style="stroke:#181818;stroke-width:0.5;" x1="233" x2="551" y1="1094.8094" y2="1094.8094"/><line style="stroke:#181818;stroke-width:0.5;" x1="233" x2="551" y1="1102.8094" y2="1102.8094"/><text fill="#000000" font-family="sans-serif" font-size="14" lengthAdjust="spacing" textLength="170" x="238" y="1120.3445">+annotate_extrema(x, y)</text><text fill="#000000" font-family="sans-serif" font-size="14" lengthAdjust="spacing" textLength="172" x="238" y="1136.8328">+annotate_statistics(x, y)</text><text fill="#000000" font-family="sans-serif" font-size="14" lengthAdjust="spacing" textLength="308" x="238" y="1153.3211">+plot_extrema(x_min, y_min, x_max, y_max)</text><text fill="#000000" font-family="sans-serif" font-size="14" lengthAdjust="spacing" textLength="121" x="238" y="1169.8094">+plot_statistics(y)</text></g><!--class MatplotlibBackend--><g id="elem_MatplotlibBackend"><rect codeLine="59" fill="#F1F1F1" height="229.3711" id="MatplotlibBackend" rx="2.5" ry="2.5" style="stroke:#181818;stroke-width:0.5;" width="320" x="232" y="747.8083"/><ellipse cx="324.75" cy="763.8083" fill="#ADD1B2" rx="11" ry="11" style="stroke:#181818;stroke-width:1.0;"/><path d="M327.2231,769.9513 Q326.6421,770.2502 326.0029,770.3996 Q325.3638,770.549 324.6582,770.549 Q322.1514,770.549 320.8315,768.8971 Q319.5117,767.2453 319.5117,764.1242 Q319.5117,760.9948 320.8315,759.3429 Q322.1514,757.6911 324.6582,757.6911 Q325.3638,757.6911 326.0112,757.8405 Q326.6587,757.9899 327.2231,758.2887 L327.2231,761.0114 Q326.5923,760.4304 325.9988,760.1606 Q325.4053,759.8908 324.7744,759.8908 Q323.4297,759.8908 322.7449,760.9575 Q322.0601,762.0241 322.0601,764.1242 Q322.0601,766.216 322.7449,767.2826 Q323.4297,768.3493 324.7744,768.3493 Q325.4053,768.3493 325.9988,768.0795 Q326.5923,767.8097 327.2231,767.2287 Z " fill="#000000"/><text fill="#000000" font-family="sans-serif" font-size="14" lengthAdjust="spacing" textLength="126" x="345.25" y="769.0993">MatplotlibBackend</text><line style="stroke:#181818;stroke-width:0.5;" x1="233" x2="551" y1="779.8083" y2="779.8083"/><line style="stroke:#181818;stroke-width:0.5;" x1="233" x2="551" y1="787.8083" y2="787.8083"/><text fill="#000000" font-family="sans-serif" font-size="14" lengthAdjust="spacing" textLength="113" x="238" y="805.3434">+plot_delta(x, y)</text><text fill="#000000" font-family="sans-serif" font-size="14" lengthAdjust="spacing" textLength="308" x="238" y="821.8317">+plot_extrema(x_min, y_min, x_max, y_max)</text><text fill="#000000" font-family="sans-serif" font-size="14" lengthAdjust="spacing" textLength="121" x="238" y="838.32">+plot_statistics(y)</text><text fill="#000000" font-family="sans-serif" font-size="14" lengthAdjust="spacing" textLength="120" x="238" y="854.8083">+begin_figure(...)</text><text fill="#000000" font-family="sans-serif" font-size="14" lengthAdjust="spacing" textLength="106" x="238" y="871.2966">+begin_plot(...)</text><text fill="#000000" font-family="sans-serif" font-size="14" lengthAdjust="spacing" textLength="58" x="238" y="887.7848">+line(...)</text><text fill="#000000" font-family="sans-serif" font-size="14" lengthAdjust="spacing" textLength="81" x="238" y="904.2731">+end_plot()</text><text fill="#000000" font-family="sans-serif" font-size="14" lengthAdjust="spacing" textLength="95" x="238" y="920.7614">+end_figure()</text><text fill="#000000" font-family="sans-serif" font-size="14" lengthAdjust="spacing" textLength="57" x="238" y="937.2497">+show()</text><text fill="#000000" font-family="sans-serif" font-size="14" lengthAdjust="spacing" textLength="132" x="238" y="953.738">+cleanup_current()</text><text fill="#000000" font-family="sans-serif" font-size="14" lengthAdjust="spacing" textLength="75" x="238" y="970.2262">+cleanup()</text></g><!--class PluginCallback--><g id="elem_PluginCallback"><rect codeLine="75" fill="#F1F1F1" height="56.6211" id="PluginCallback" rx="2.5" ry="2.5" style="stroke:#181818;stroke-width:0.5;" width="133" x="1478.5" y="834.1883"/><ellipse cx="1493.5" cy="854.4988" fill="#ADD1B2" rx="11" ry="11" style="stroke:#181818;stroke-width:1.0;"/><path d="M1495.9731,860.6419 Q1495.3921,860.9407 1494.7529,861.0901 Q1494.1138,861.2396 1493.4082,861.2396 Q1490.9014,861.2396 1489.5815,859.5877 Q1488.2617,857.9358 1488.2617,854.8147 Q1488.2617,851.6854 1489.5815,850.0335 Q1490.9014,848.3816 1493.4082,848.3816 Q1494.1138,848.3816 1494.7612,848.5311 Q1495.4087,848.6805 1495.9731,848.9793 L1495.9731,851.702 Q1495.3423,851.1209 1494.7488,850.8511 Q1494.1553,850.5813 1493.5244,850.5813 Q1492.1797,850.5813 1491.4949,851.648 Q1490.8101,852.7146 1490.8101,854.8147 Q1490.8101,856.9065 1491.4949,857.9732 Q1492.1797,859.0398 1493.5244,859.0398 Q1494.1553,859.0398 1494.7488,858.7701 Q1495.3423,858.5003 1495.9731,857.9192 Z " fill="#000000"/><text fill="#000000" font-family="sans-serif" font-size="12" font-style="italic" lengthAdjust="spacing" textLength="56" x="1530" y="850.7898">&#171;callable&#187;</text><text fill="#000000" font-family="sans-serif" font-size="14" lengthAdjust="spacing" textLength="101" x="1507.5" y="866.8563">PluginCallback</text><line style="stroke:#181818;stroke-width:0.5;" x1="1479.5" x2="1610.5" y1="874.8094" y2="874.8094"/><line style="stroke:#181818;stroke-width:0.5;" x1="1479.5" x2="1610.5" y1="882.8094" y2="882.8094"/></g><!--class WPStatus--><g id="elem_WPStatus"><rect codeLine="76" fill="#F1F1F1" height="48" id="WPStatus" rx="2.5" ry="2.5" style="stroke:#181818;stroke-width:0.5;" width="94" x="1479" y="517.3683"/><ellipse cx="1494" cy="533.3683" fill="#ADD1B2" rx="11" ry="11" style="stroke:#181818;stroke-width:1.0;"/><path d="M1496.4731,539.5113 Q1495.8921,539.8102 1495.2529,539.9596 Q1494.6138,540.109 1493.9082,540.109 Q1491.4014,540.109 1490.0815,538.4571 Q1488.7617,536.8053 1488.7617,533.6842 Q1488.7617,530.5548 1490.0815,528.9029 Q1491.4014,527.2511 1493.9082,527.2511 Q1494.6138,527.2511 1495.2612,527.4005 Q1495.9087,527.5499 1496.4731,527.8488 L1496.4731,530.5714 Q1495.8423,529.9904 1495.2488,529.7206 Q1494.6553,529.4508 1494.0244,529.4508 Q1492.6797,529.4508 1491.9949,530.5175 Q1491.3101,531.5841 1491.3101,533.6842 Q1491.3101,535.776 1491.9949,536.8426 Q1492.6797,537.9093 1494.0244,537.9093 Q1494.6553,537.9093 1495.2488,537.6395 Q1495.8423,537.3697 1496.4731,536.7887 Z " fill="#000000"/><text fill="#000000" font-family="sans-serif" font-size="14" lengthAdjust="spacing" textLength="62" x="1508" y="538.6593">WPStatus</text><line style="stroke:#181818;stroke-width:0.5;" x1="1480" x2="1572" y1="549.3683" y2="549.3683"/><line style="stroke:#181818;stroke-width:0.5;" x1="1480" x2="1572" y1="557.3683" y2="557.3683"/></g><!--class RenderOptions--><g id="elem_RenderOptions"><rect codeLine="80" fill="#F1F1F1" height="113.9531" id="RenderOptions" rx="2.5" ry="2.5" style="stroke:#181818;stroke-width:0.5;" width="135" x="1678.5" y="805.5183"/><ellipse cx="1693.5" cy="821.5183" fill="#ADD1B2" rx="11" ry="11" style="stroke:#181818;stroke-width:1.0;"/><path d="M1695.9731,827.6613 Q1695.3921,827.9602 1694.7529,828.1096 Q1694.1138,828.259 1693.4082,828.259 Q1690.9014,828.259 1689.5815,826.6071 Q1688.2617,824.9553 1688.2617,821.8342 Q1688.2617,818.7048 1689.5815,817.0529 Q1690.9014,815.4011 1693.4082,815.4011 Q1694.1138,815.4011 1694.7612,815.5505 Q1695.4087,815.6999 1695.9731,815.9988 L1695.9731,818.7214 Q1695.3423,818.1404 1694.7488,817.8706 Q1694.1553,817.6008 1693.5244,817.6008 Q1692.1797,817.6008 1691.4949,818.6675 Q1690.8101,819.7341 1690.8101,821.8342 Q1690.8101,823.926 1691.4949,824.9926 Q1692.1797,826.0593 1693.5244,826.0593 Q1694.1553,826.0593 1694.7488,825.7895 Q1695.3423,825.5197 1695.9731,824.9387 Z " fill="#000000"/><text fill="#000000" font-family="sans-serif" font-size="14" lengthAdjust="spacing" textLength="103" x="1707.5" y="826.8093">RenderOptions</text><line style="stroke:#181818;stroke-width:0.5;" x1="1679.5" x2="1812.5" y1="837.5183" y2="837.5183"/><text fill="#000000" font-family="sans-serif" font-size="14" lengthAdjust="spacing" textLength="65" x="1684.5" y="855.0534">+share_x</text><text fill="#000000" font-family="sans-serif" font-size="14" lengthAdjust="spacing" textLength="63" x="1684.5" y="871.5417">+share_y</text><text fill="#000000" font-family="sans-serif" font-size="14" lengthAdjust="spacing" textLength="85" x="1684.5" y="888.03">+calc_deltas</text><text fill="#000000" font-family="sans-serif" font-size="14" lengthAdjust="spacing" textLength="81" x="1684.5" y="904.5183">+desc_stats</text><line style="stroke:#181818;stroke-width:0.5;" x1="1679.5" x2="1812.5" y1="911.4714" y2="911.4714"/></g><!--class RenderContext--><g id="elem_RenderContext"><rect codeLine="87" fill="#F1F1F1" height="113.9531" id="RenderContext" rx="2.5" ry="2.5" style="stroke:#181818;stroke-width:0.5;" width="136" x="1686" y="484.3983"/><ellipse cx="1701" cy="500.3983" fill="#ADD1B2" rx="11" ry="11" style="stroke:#181818;stroke-width:1.0;"/><path d="M1703.4731,506.5413 Q1702.8921,506.8402 1702.2529,506.9896 Q1701.6138,507.139 1700.9082,507.139 Q1698.4014,507.139 1697.0815,505.4871 Q1695.7617,503.8353 1695.7617,500.7142 Q1695.7617,497.5848 1697.0815,495.9329 Q1698.4014,494.2811 1700.9082,494.2811 Q1701.6138,494.2811 1702.2612,494.4305 Q1702.9087,494.5799 1703.4731,494.8787 L1703.4731,497.6014 Q1702.8423,497.0204 1702.2488,496.7506 Q1701.6553,496.4808 1701.0244,496.4808 Q1699.6797,496.4808 1698.9949,497.5475 Q1698.3101,498.6141 1698.3101,500.7142 Q1698.3101,502.806 1698.9949,503.8726 Q1699.6797,504.9393 1701.0244,504.9393 Q1701.6553,504.9393 1702.2488,504.6695 Q1702.8423,504.3997 1703.4731,503.8187 Z " fill="#000000"/><text fill="#000000" font-family="sans-serif" font-size="14" lengthAdjust="spacing" textLength="104" x="1715" y="505.6893">RenderContext</text><line style="stroke:#181818;stroke-width:0.5;" x1="1687" x2="1821" y1="516.3983" y2="516.3983"/><text fill="#000000" font-family="sans-serif" font-size="14" lengthAdjust="spacing" textLength="39" x="1692" y="533.9334">+files</text><text fill="#000000" font-family="sans-serif" font-size="14" lengthAdjust="spacing" textLength="72" x="1692" y="550.4217">+channels</text><text fill="#000000" font-family="sans-serif" font-size="14" lengthAdjust="spacing" textLength="41" x="1692" y="566.91">+data</text><text fill="#000000" font-family="sans-serif" font-size="14" lengthAdjust="spacing" textLength="63" x="1692" y="583.3983">+options</text><line style="stroke:#181818;stroke-width:0.5;" x1="1687" x2="1821" y1="590.3514" y2="590.3514"/></g><!--class ReadingsFile--><g id="elem_ReadingsFile"><rect codeLine="94" fill="#F1F1F1" height="97.4648" id="ReadingsFile" rx="2.5" ry="2.5" style="stroke:#181818;stroke-width:0.5;" width="207" x="1848.5" y="813.7683"/><ellipse cx="1904.25" cy="829.7683" fill="#ADD1B2" rx="11" ry="11" style="stroke:#181818;stroke-width:1.0;"/><path d="M1906.7231,835.9113 Q1906.1421,836.2102 1905.5029,836.3596 Q1904.8638,836.509 1904.1582,836.509 Q1901.6514,836.509 1900.3315,834.8571 Q1899.0117,833.2053 1899.0117,830.0842 Q1899.0117,826.9548 1900.3315,825.3029 Q1901.6514,823.6511 1904.1582,823.6511 Q1904.8638,823.6511 1905.5112,823.8005 Q1906.1587,823.9499 1906.7231,824.2488 L1906.7231,826.9714 Q1906.0923,826.3904 1905.4988,826.1206 Q1904.9053,825.8508 1904.2744,825.8508 Q1902.9297,825.8508 1902.2449,826.9175 Q1901.5601,827.9841 1901.5601,830.0842 Q1901.5601,832.176 1902.2449,833.2426 Q1902.9297,834.3093 1904.2744,834.3093 Q1904.9053,834.3093 1905.4988,834.0395 Q1906.0923,833.7697 1906.7231,833.1887 Z " fill="#000000"/><text fill="#000000" font-family="sans-serif" font-size="14" lengthAdjust="spacing" textLength="87" x="1924.75" y="835.0593">ReadingsFile</text><line style="stroke:#181818;stroke-width:0.5;" x1="1849.5" x2="2054.5" y1="845.7683" y2="845.7683"/><line style="stroke:#181818;stroke-width:0.5;" x1="1849.5" x2="2054.5" y1="853.7683" y2="853.7683"/><text fill="#000000" font-family="sans-serif" font-size="14" lengthAdjust="spacing" textLength="141" x="1854.5" y="871.3034">+get_time_channel()</text><text fill="#000000" font-family="sans-serif" font-size="14" lengthAdjust="spacing" textLength="195" x="1854.5" y="887.7917">+get_channel_data(channel)</text><text fill="#000000" font-family="sans-serif" font-size="14" lengthAdjust="spacing" textLength="174" x="1854.5" y="904.28">+get_numeric_channels()</text></g><!--link MainWindow to Renderer--><g id="link_MainWindow_Renderer"><path codeLine="101" d="M1265.06,127.8483 C1252.28,135.9083 1240.34,146.3183 1233,159.4883 C1221.71,179.7383 1218.9997,198.5974 1220.2497,221.2674 " fill="none" id="MainWindow-to-Renderer" style="stroke:#181818;stroke-width:1.0;"/><polygon fill="#181818" points="1220.58,227.2583,1224.0784,218.0517,1220.3047,222.2659,1216.0906,218.4922,1220.58,227.2583" style="stroke:#181818;stroke-width:1.0;"/><text fill="#000000" font-family="sans-serif" font-size="13" lengthAdjust="spacing" textLength="52" x="1234" y="173.0566">submit()</text></g><!--link AnalysisOverviewDialog to Renderer--><g id="link_AnalysisOverviewDialog_Renderer"><path codeLine="102" d="M1465.43,127.8883 C1436.28,142.8683 1398.62,163.4083 1367,184.4883 C1347.54,197.4683 1332.1112,208.8302 1313.5612,223.5402 " fill="none" id="AnalysisOverviewDialog-to-Renderer" style="stroke:#181818;stroke-width:1.0;"/><polygon fill="#181818" points="1308.86,227.2683,1318.3972,224.8104,1312.7777,224.1616,1313.4265,218.5421,1308.86,227.2683" style="stroke:#181818;stroke-width:1.0;"/><text fill="#000000" font-family="sans-serif" font-size="13" lengthAdjust="spacing" textLength="54" x="1406.82" y="173.0566">inspect()</text></g><!--link Renderer to RenderContext--><g id="link_Renderer_RenderContext"><path codeLine="104" d="M1340.32,349.1983 C1349.2,352.5383 1358.17,355.5183 1367,357.9283 C1441.88,378.3683 1655.79,337.7383 1715,387.9283 C1742.51,411.2483 1751.5231,445.0689 1754.2731,478.1589 " fill="none" id="Renderer-to-RenderContext" style="stroke:#181818;stroke-width:1.0;"/><polygon fill="#181818" points="1754.77,484.1383,1758.0109,474.8379,1754.3559,479.1555,1750.0384,475.5005,1754.77,484.1383" style="stroke:#181818;stroke-width:1.0;"/><text fill="#000000" font-family="sans-serif" font-size="13" lengthAdjust="spacing" textLength="39" x="1730.05" y="401.4966">builds</text></g><!--link Renderer to LayoutStrategy--><g id="link_Renderer_LayoutStrategy"><path codeLine="105" d="M1133.86,358.3883 C1100.36,381.4483 1063.28,408.3283 1031,434.9283 C1004.01,457.1783 979.2737,479.5615 956.9637,500.4115 " fill="none" id="Renderer-to-LayoutStrategy" style="stroke:#181818;stroke-width:1.0;"/><polygon fill="#181818" points="952.58,504.5083,961.8867,501.2855,956.233,501.0943,956.4243,495.4407,952.58,504.5083" style="stroke:#181818;stroke-width:1.0;"/><text fill="#000000" font-family="sans-serif" font-size="13" lengthAdjust="spacing" textLength="112" x="1090.97" y="401.4966">delegates render()</text></g><!--link Renderer to RenderBackend--><g id="link_Renderer_RenderBackend"><path codeLine="106" d="M1223.07,358.1983 C1219.46,381.6083 1216.1935,402.7782 1212.1835,428.8082 " fill="none" id="Renderer-to-RenderBackend" style="stroke:#181818;stroke-width:1.0;"/><polygon fill="#181818" points="1211.27,434.7383,1216.5937,426.4522,1212.0313,429.7966,1208.6869,425.2342,1211.27,434.7383" style="stroke:#181818;stroke-width:1.0;"/><text fill="#000000" font-family="sans-serif" font-size="13" lengthAdjust="spacing" textLength="29" x="1218.4" y="401.4966">uses</text></g><!--reverse link LayoutStrategy to PerFilePlot--><g id="link_LayoutStrategy_PerFilePlot"><path codeLine="108" d="M918.8854,596.3116 C923.4254,659.2316 931.42,770.2583 935.72,829.9283 " fill="none" id="LayoutStrategy-backto-PerFilePlot" style="stroke:#181818;stroke-width:1.0;"/><polygon fill="none" points="917.59,578.3583,912.901,596.7434,924.8699,595.8798,917.59,578.3583" style="stroke:#181818;stroke-width:1.0;"/></g><!--reverse link LayoutStrategy to PerChannelPlot--><g id="link_LayoutStrategy_PerChannelPlot"><path codeLine="109" d="M798.257,547.6958 C704.207,556.9758 585.27,585.3483 518,679.8083 C513.62,685.9683 513.1,691.0683 518,696.8083 C532.6,713.9383 548.29,693.9483 568,704.8083 C621.65,734.3783 664.61,793.1983 687.61,829.7583 " fill="none" id="LayoutStrategy-backto-PerChannelPlot" style="stroke:#181818;stroke-width:1.0;"/><polygon fill="none" points="816.17,545.9283,797.6678,541.7248,798.8462,553.6668,816.17,545.9283" style="stroke:#181818;stroke-width:1.0;"/></g><!--link PerFilePlot to RenderBackend--><g id="link_PerFilePlot_RenderBackend"><path codeLine="110" d="M938.29,829.7983 C940.46,788.9783 950.62,718.6783 993,679.8083 C1005.72,668.1483 1015.37,679.1283 1031,671.8083 C1045.29,665.1183 1054.4357,660.248 1068.1157,651.318 " fill="none" id="PerFilePlot-to-RenderBackend" style="stroke:#181818;stroke-width:1.0;stroke-dasharray:7.0,7.0;"/><polygon fill="#181818" points="1073.14,648.0383,1063.4171,649.6084,1068.9531,650.7714,1067.7901,656.3074,1073.14,648.0383" style="stroke:#181818;stroke-width:1.0;"/><text fill="#000000" font-family="sans-serif" font-size="13" lengthAdjust="spacing" textLength="359" x="994" y="693.3766">begin_figure/begin_plot/line/end_plot/end_figure/show</text></g><!--link PerChannelPlot to RenderBackend--><g id="link_PerChannelPlot_RenderBackend"><path codeLine="111" d="M667.89,829.7983 C625.13,790.5683 567.03,723.6083 610,679.8083 C626.38,663.1183 1008.97,679.6883 1031,671.8083 C1047.39,665.9483 1058.309,660.9035 1073.509,651.4235 " fill="none" id="PerChannelPlot-to-RenderBackend" style="stroke:#181818;stroke-width:1.0;stroke-dasharray:7.0,7.0;"/><polygon fill="#181818" points="1078.6,648.2483,1068.8467,649.617,1074.3575,650.8943,1073.0803,656.405,1078.6,648.2483" style="stroke:#181818;stroke-width:1.0;"/><text fill="#000000" font-family="sans-serif" font-size="13" lengthAdjust="spacing" textLength="359" x="611" y="693.3766">begin_figure/begin_plot/line/end_plot/end_figure/show</text></g><!--reverse link RenderBackend to MatplotlibBackend--><g id="link_RenderBackend_MatplotlibBackend"><path codeLine="113" d="M1063.3325,657.7866 C1048.1325,667.2566 1047.4,665.9583 1031,671.8083 C984.95,688.2683 636.43,661.7183 591,679.8083 C553.51,694.7483 518.7,720.2383 489.01,747.4783 " fill="none" id="RenderBackend-backto-MatplotlibBackend" style="stroke:#181818;stroke-width:1.0;stroke-dasharray:7.0,7.0;"/><polygon fill="none" points="1078.61,648.2683,1060.1597,652.6941,1066.5053,662.8791,1078.61,648.2683" style="stroke:#181818;stroke-width:1.0;"/></g><!--link MatplotlibBackend to DeltaMixin--><g id="link_MatplotlibBackend_DeltaMixin"><path codeLine="114" d="M263.79,977.5983 C226.83,1010.4883 202.149,1032.4748 173.089,1058.3248 " fill="none" id="MatplotlibBackend-to-DeltaMixin" style="stroke:#181818;stroke-width:1.0;"/><polygon fill="none" points="159.64,1070.2883,177.0768,1062.8079,169.1012,1053.8418,159.64,1070.2883" style="stroke:#181818;stroke-width:1.0;"/></g><!--link MatplotlibBackend to DescriptiveStatisticsMixin--><g id="link_MatplotlibBackend_DescriptiveStatisticsMixin"><path codeLine="115" d="M392,977.5983 C392,1003.8883 392,1012.8483 392,1035.8083 " fill="none" id="MatplotlibBackend-to-DescriptiveStatisticsMixin" style="stroke:#181818;stroke-width:1.0;"/><polygon fill="none" points="392,1053.8083,398,1035.8083,386,1035.8083,392,1053.8083" style="stroke:#181818;stroke-width:1.0;"/></g><!--link RenderContext to RenderOptions--><g id="link_RenderContext_RenderOptions"><path codeLine="117" d="M1752.59,598.6883 C1751.13,656.8483 1749.0206,741.0602 1747.5606,799.2102 " fill="none" id="RenderContext-to-RenderOptions" style="stroke:#181818;stroke-width:1.0;"/><polygon fill="#181818" points="1747.41,805.2083,1751.6346,796.3115,1747.5355,800.2099,1743.6372,796.1107,1747.41,805.2083" style="stroke:#181818;stroke-width:1.0;"/></g><!--link RenderContext to ReadingsFile--><g id="link_RenderContext_ReadingsFile"><path codeLine="118" d="M1788.94,598.6883 C1826.74,659.6183 1883.2163,750.6402 1918.9363,808.2002 " fill="none" id="RenderContext-to-ReadingsFile" style="stroke:#181818;stroke-width:1.0;"/><polygon fill="#181818" points="1922.1,813.2983,1920.7531,803.542,1919.4636,809.0499,1913.9557,807.7603,1922.1,813.2983" style="stroke:#181818;stroke-width:1.0;"/><text fill="#000000" font-family="sans-serif" font-size="13" lengthAdjust="spacing" textLength="62" x="1848.06" y="693.3766">data[files]</text></g><!--link PerFilePlot to DescriptiveStatisticsMixin--><g id="link_PerFilePlot_DescriptiveStatisticsMixin"><path codeLine="119" d="M918.16,895.1183 C893.31,932.0083 847.2,992.0183 792,1024.1883 C719.42,1066.4783 634.6884,1088.0439 558.0484,1099.9939 " fill="none" id="PerFilePlot-to-DescriptiveStatisticsMixin" style="stroke:#181818;stroke-width:1.0;stroke-dasharray:7.0,7.0;"/><polygon fill="#181818" points="552.12,1100.9183,561.6288,1103.484,557.0603,1100.148,560.3963,1095.5795,552.12,1100.9183" style="stroke:#181818;stroke-width:1.0;"/><text fill="#000000" font-family="sans-serif" font-size="13" lengthAdjust="spacing" textLength="132" x="817.35" y="1020.7566">annotate_* (optional)</text></g><!--link PerChannelPlot to DeltaMixin--><g id="link_PerChannelPlot_DeltaMixin"><path codeLine="120" d="M676.42,895.1083 C650.33,921.0783 610.03,956.7783 568,977.1883 C495.77,1012.2483 289.91,1025.2983 215,1054.1883 C203.43,1058.6483 196.9143,1061.444 185.5843,1067.434 " fill="none" id="PerChannelPlot-to-DeltaMixin" style="stroke:#181818;stroke-width:1.0;stroke-dasharray:7.0,7.0;"/><polygon fill="#181818" points="180.28,1070.2383,190.106,1069.568,184.7003,1067.9014,186.3669,1062.4956,180.28,1070.2383" style="stroke:#181818;stroke-width:1.0;"/><text fill="#000000" font-family="sans-serif" font-size="13" lengthAdjust="spacing" textLength="158" x="451.38" y="1020.7566">calculate_delta (optional)</text></g><!--link PerChannelPlot to DescriptiveStatisticsMixin--><g id="link_PerChannelPlot_DescriptiveStatisticsMixin"><path codeLine="121" d="M700.26,894.9583 C692.15,930.8483 674,989.0783 637,1024.1883 C613.16,1046.8083 588.7077,1061.5488 557.9677,1074.3688 " fill="none" id="PerChannelPlot-to-DescriptiveStatisticsMixin" style="stroke:#181818;stroke-width:1.0;stroke-dasharray:7.0,7.0;"/><polygon fill="#181818" points="552.43,1076.6783,562.2762,1076.9059,557.0448,1074.7537,559.1969,1069.5222,552.43,1076.6783" style="stroke:#181818;stroke-width:1.0;"/><text fill="#000000" font-family="sans-serif" font-size="13" lengthAdjust="spacing" textLength="132" x="650.71" y="1020.7566">annotate_* (optional)</text></g><!--link RenderBackend to PluginCallback--><g id="link_RenderBackend_PluginCallback"><path codeLine="123" d="M1322.12,648.0583 C1334.34,658.6683 1346.47,669.3783 1358,679.8083 C1416.39,732.6783 1477.5633,793.3498 1513.4733,829.5298 " fill="none" id="RenderBackend-to-PluginCallback" style="stroke:#181818;stroke-width:1.0;stroke-dasharray:7.0,7.0;"/><polygon fill="#181818" points="1517.7,833.7883,1514.1989,824.5827,1514.1777,830.2395,1508.5209,830.2183,1517.7,833.7883" style="stroke:#181818;stroke-width:1.0;"/><text fill="#000000" font-family="sans-serif" font-size="13" lengthAdjust="spacing" textLength="197" x="1374.6" y="693.3766">register_plugin(event, callback)</text></g><!--link MainWindow to WPStatus--><g id="link_MainWindow_WPStatus"><path codeLine="124" d="M1358.22,127.8583 C1369.23,136.5783 1380.41,147.3483 1388,159.4883 C1436.18,236.4983 1406.02,272.5283 1437,357.9283 C1458.51,417.2283 1490.5189,477.5629 1509.5989,511.6429 " fill="none" id="MainWindow-to-WPStatus" style="stroke:#181818;stroke-width:1.0;"/><polygon fill="#181818" points="1512.53,516.8783,1511.6236,507.0712,1510.0875,512.5155,1504.6432,510.9793,1512.53,516.8783" style="stroke:#181818;stroke-width:1.0;"/><text fill="#000000" font-family="sans-serif" font-size="13" lengthAdjust="spacing" textLength="161" x="1438" y="297.7766">registers post_begin_plot</text></g><!--link AnalysisOverviewDialog to PluginCallback--><g id="link_AnalysisOverviewDialog_PluginCallback"><path codeLine="125" d="M1552.53,127.7383 C1571.91,141.5283 1593.34,160.9183 1604,184.4883 C1627.46,236.3583 1613.74,640.7283 1604,696.8083 C1595.32,746.7883 1575.3392,796.1745 1560.7692,828.2845 " fill="none" id="AnalysisOverviewDialog-to-PluginCallback" style="stroke:#181818;stroke-width:1.0;stroke-dasharray:7.0,7.0;"/><polygon fill="#181818" points="1558.29,833.7483,1565.6514,827.2054,1560.356,829.1951,1558.3663,823.8997,1558.29,833.7483" style="stroke:#181818;stroke-width:1.0;"/><text fill="#000000" font-family="sans-serif" font-size="13" lengthAdjust="spacing" textLength="86" x="1617.91" y="401.4966">passes hooks</text></g><!--link WPStatus to PluginCallback--><g id="link_WPStatus_PluginCallback"><path codeLine="126" d="M1542.57,565.7983 C1560.06,592.1083 1586.53,636.7483 1597,679.8083 C1610.4,734.9683 1590.7413,782.8468 1570.8813,818.2768 " fill="none" id="WPStatus-to-PluginCallback" style="stroke:#181818;stroke-width:1.0;stroke-dasharray:7.0,7.0;"/><polygon fill="none" points="1562.08,833.9783,1576.1152,821.2106,1565.6475,815.343,1562.08,833.9783" style="stroke:#181818;stroke-width:1.0;"/></g><!--SRC=[hLPHQzim47xthpZsv7QDi-qnb42Ni55OQLaPVHZ3oCxL4LLa8ybjidMm7x5Vk5-oaoN7YkEi7VJ9akxqwVJTtISRRWJ2HyMg9PnBpOkbqV3drs_uZ7A1Yii2hZVQu2hITrnMJB4Lv89fVMQCubbjy3mlvJN_Zl0cSAbOViSAl3ORGbUO6oOBWL7ar-7LbtCOmum9WKg_0gQ15dv4uB3XWd5vm-MYVDWkdKacDfhhotjKznmVvfo9ieX-1fWkP9YL2Xj8EmX0dPaSx1B0QzNCurikK9z0lcHIeg3HWXbsv5noWKpMLUod6asQqMcqCVRVm2BOfgnDgerY1ejDxEQ1GraPNaeT-w-rKFW0N1fKjon77-9x1zt5MN3AW4ehKHTSndYFqb30H9uDmX-GaPTCRtbHAumb-PQ6xgANJ66wRWUR7MVh4nFBI7PZw-04Ze_l7fWgjFSJN69Criq929QX81oRKM-b61r6CFS1jBTUbW_nBfTfNYjYtiJ351V4a_Vei1kMN18_DQHUUuxXz9Hbbl3SJAUzlFe44L4byRis3YYi5uVboi-FWtAvGlM1IkEAWdWMSh1lvchfsLl3e7poNLJj90XhZiAm2xxcSl3oL1LvBOYST64TO_sMSlREasi9zUisgJrgvwXpnQasxwblcQ6Quxa-V19TiJJs8Bg6mbK76Thq5YWqDt5ijwKhBidcFZHZwsR6rg5t0DIF-u8Pwo9urckSWUk-pE7zTakIPB-nkiMcYxhfYxVDRW5TDIhXwiUFmwfkLcPUEoYnLaPO9d0wtVhSNDdyrtf8NESaZWsq7Uo9wwLJjZO1Ndt2oQOhKvSQxHOML7mDptetkGvtvhgbnMqasmDvsVOe59GRUOtjWx45lMZQzdMBPGN7y1Mc7cb7YDnIQc5ZFmdCibxH2vctRhfBHlT-mMWqxLwU2UWwMt6RnU7thEzEoQlezIJ_QBlQkRIqJ22hkLZeNP-UL4w0-CQ29Xgy6XqDWRPDD85Q4yjHNt4VHwDG6m_P0msCGYbDals3mcOQToqqjeqpRjjbtFN9s3P8r1FQbmEETc5E7vDaNsIYVTaPZHwdWJuVzZYai-t9RLwxfFZ66hG7DJrfVbw-DltnRO_sVmZy1BQIVGp-1uLHhGzm73n04-WzDqzk_Uy0UhcmA3q9cy2JFqYzTcprBTYgeIer_TnjI-HGVmu6K96uK5Sjo_9EHrlq97di-qP_0G00]--></g></svg>