<?xml version="1.0" encoding="us-ascii" standalone="no"?><svg xmlns="http://www.w3.org/2000/svg" xmlns:xlink="http://www.w3.org/1999/xlink" contentStyleType="text/css" height="277px" preserveAspectRatio="none" style="width:719px;height:277px;background:#FFFFFF;" version="1.1" viewBox="0 0 719 277" width="719px" zoomAndPan="magnify"><defs/><g><!--class DescriptiveStatisticsMixin--><g id="elem_DescriptiveStatisticsMixin"><rect codeLine="3" fill="#F1F1F1" height="122.5742" id="DescriptiveStatisticsMixin" rx="2.5" ry="2.5" style="stroke:#181818;stroke-width:0.5;" width="393" x="7" y="131.61"/><ellipse cx="112.75" cy="151.9205" fill="#ADD1B2" rx="11" ry="11" style="stroke:#181818;stroke-width:1.0;"/><path d="M115.2231,158.0636 Q114.6421,158.3624 114.0029,158.5119 Q113.3638,158.6613 112.6582,158.6613 Q110.1514,158.6613 108.8315,157.0094 Q107.5117,155.3576 107.5117,152.2365 Q107.5117,149.1071 108.8315,147.4552 Q110.1514,145.8034 112.6582,145.8034 Q113.3638,145.8034 114.0112,145.9528 Q114.6587,146.1022 115.2231,146.401 L115.2231,149.1237 Q114.5923,148.5426 113.9988,148.2728 Q113.4053,148.0031 112.7744,148.0031 Q111.4297,148.0031 110.7449,149.0697 Q110.0601,150.1364 110.0601,152.2365 Q110.0601,154.3283 110.7449,155.3949 Q111.4297,156.4616 112.7744,156.4616 Q113.4053,156.4616 113.9988,156.1918 Q114.5923,155.922 115.2231,155.341 Z " fill="#000000"/><text fill="#000000" font-family="sans-serif" font-size="12" font-style="italic" lengthAdjust="spacing" textLength="59" x="190.25" y="148.2116">&#171;abstract&#187;</text><text fill="#000000" font-family="sans-serif" font-size="14" lengthAdjust="spacing" textLength="173" x="133.25" y="164.278">DescriptiveStatisticsMixin</text><line style="stroke:#181818;stroke-width:0.5;" x1="8" x2="399" y1="172.2311" y2="172.2311"/><line style="stroke:#181818;stroke-width:0.5;" x1="8" x2="399" y1="180.2311" y2="180.2311"/><text fill="#000000" font-family="sans-serif" font-size="14" lengthAdjust="spacing" textLength="170" x="13" y="197.7663">+annotate_extrema(x, y)</text><text fill="#000000" font-family="sans-serif" font-size="14" lengthAdjust="spacing" textLength="172" x="13" y="214.2545">+annotate_statistics(x, y)</text><text fill="#000000" font-family="sans-serif" font-size="14" lengthAdjust="spacing" textLength="381" x="13" y="230.7428">+plot_extrema(x_min, y_min, x_max, y_max) &#171;abstract&#187;</text><text fill="#000000" font-family="sans-serif" font-size="14" lengthAdjust="spacing" textLength="194" x="13" y="247.2311">+plot_statistics(y) &#171;abstract&#187;</text></g><!--class MatplotlibBackend--><g id="elem_MatplotlibBackend"><rect codeLine="10" fill="#F1F1F1" height="48" id="MatplotlibBackend" rx="2.5" ry="2.5" style="stroke:#181818;stroke-width:0.5;" width="158" x="124.5" y="7"/><ellipse cx="139.5" cy="23" fill="#ADD1B2" rx="11" ry="11" style="stroke:#181818;stroke-width:1.0;"/><path d="M141.9731,29.1431 Q141.3921,29.4419 140.7529,29.5913 Q140.1138,29.7407 139.4082,29.7407 Q136.9014,29.7407 135.5815,28.0889 Q134.2617,26.437 134.2617,23.3159 Q134.2617,20.1865 135.5815,18.5347 Q136.9014,16.8828 139.4082,16.8828 Q140.1138,16.8828 140.7612,17.0322 Q141.4087,17.1816 141.9731,17.4805 L141.9731,20.2031 Q141.3423,19.6221 140.7488,19.3523 Q140.1553,19.0825 139.5244,19.0825 Q138.1797,19.0825 137.4949,20.1492 Q136.8101,21.2158 136.8101,23.3159 Q136.8101,25.4077 137.4949,26.4744 Q138.1797,27.541 139.5244,27.541 Q140.1553,27.541 140.7488,27.2712 Q141.3423,27.0015 141.9731,26.4204 Z " fill="#000000"/><text fill="#000000" font-family="sans-serif" font-size="14" lengthAdjust="spacing" textLength="126" x="153.5" y="28.291">MatplotlibBackend</text><line style="stroke:#181818;stroke-width:0.5;" x1="125.5" x2="281.5" y1="39" y2="39"/><line style="stroke:#181818;stroke-width:0.5;" x1="125.5" x2="281.5" y1="47" y2="47"/></g><g id="elem_GMN5"><path d="M435,115 L435,188.89 L400.42,192.89 L435,196.89 L435,270.7949 A0,0 0 0 0 435,270.7949 L712,270.7949 A0,0 0 0 0 712,270.7949 L712,125 L702,115 L435,115 A0,0 0 0 0 435,115 " fill="#FEFFDD" style="stroke:#181818;stroke-width:0.5;"/><path d="M702,115 L702,125 L712,125 L702,115 " fill="#FEFFDD" style="stroke:#181818;stroke-width:0.5;"/><text fill="#000000" font-family="sans-serif" font-size="13" lengthAdjust="spacing" textLength="244" x="441" y="132.5684">plot_extrema(...) and plot_statistics(...)</text><text fill="#000000" font-family="sans-serif" font-size="13" lengthAdjust="spacing" textLength="92" x="441" y="147.8789">are ABSTRACT.</text><text fill="#000000" font-family="sans-serif" font-size="13" lengthAdjust="spacing" textLength="220" x="441" y="163.1895">Every backend that uses this mixin</text><text fill="#000000" font-family="sans-serif" font-size="13" lengthAdjust="spacing" textLength="154" x="441" y="178.5">MUST IMPLEMENT BOTH.</text><text fill="#000000" font-family="sans-serif" font-size="13" lengthAdjust="spacing" textLength="4" x="441" y="193.8105">&#160;</text><line style="stroke:#181818;stroke-width:1.0;" x1="436" x2="711" y1="196.5527" y2="196.5527"/><text fill="#000000" font-family="sans-serif" font-size="13" lengthAdjust="spacing" textLength="4" x="441" y="213.1211">&#160;</text><text fill="#000000" font-family="sans-serif" font-size="13" lengthAdjust="spacing" textLength="124" x="441" y="228.4316">annotate_statistics:</text><text fill="#000000" font-family="sans-serif" font-size="13" lengthAdjust="spacing" textLength="150" x="441" y="243.7422">- calls plot_statistics(y)</text><text fill="#000000" font-family="sans-serif" font-size="13" lengthAdjust="spacing" textLength="256" x="441" y="259.0527">- optionally calls annotate_extrema(x, y)</text></g><!--link MatplotlibBackend to DescriptiveStatisticsMixin--><g id="link_MatplotlibBackend_DescriptiveStatisticsMixin"><path codeLine="12" d="M203.5,55.25 C203.5,75.17 203.5,86.77 203.5,113.33 " fill="none" id="MatplotlibBackend-to-DescriptiveStatisticsMixin" style="stroke:#181818;stroke-width:1.0;"/><polygon fill="none" points="203.5,131.33,209.5,113.33,197.5,113.33,203.5,131.33" style="stroke:#181818;stroke-width:1.0;"/></g><!--SRC=[VL7BJiCm4BplL-oH219nHbMb12fHYG0YuLnjZA6h9dPbRwk4nx_ZbD8dz6IlPtPsPkrdRERag45La_UfYEDg8Ngih2duNUCbm0h16-sLuxdmKXT2mbvO-PnRDZWOKEN5aPBX43y0yPoCiO6a9xeLfniwQo-mY_OGln7PWlFQohPbqh09oCyHAcfN5RNHtiHDuuvYTq3v-asHa_JScgkCr4oR5u2Z9upZp-69l00XWaR7RrD1-tgAkHSeIP88AUWVkkq18ASnpOhoARqk4nWjjUkmMXkIAGaklFRXnXwRbNR-N9GupX_lHldeliJieRnD0E8Ou8yTNq6CYkhQu_6g0cI3Usi2tgrP_tnWRwOF3zy0]--></g></svg>