<?xml version="1.0" encoding="us-ascii" standalone="no"?><svg xmlns="http://www.w3.org/2000/svg" xmlns:xlink="http://www.w3.org/1999/xlink" contentStyleType="text/css" height="729px" preserveAspectRatio="none" style="width:319px;height:729px;background:#FFFFFF;" version="1.1" viewBox="0 0 319 729" width="319px" zoomAndPan="magnify"><defs/><g><ellipse cx="159.5" cy="20" fill="#222222" rx="10" ry="10" style="stroke:#222222;stroke-width:1.0;"/><rect fill="#F1F1F1" height="48.2656" rx="12.5" ry="12.5" style="stroke:#181818;stroke-width:0.5;" width="161" x="79" y="50"/><text fill="#000000" font-family="sans-serif" font-size="12" lengthAdjust="spacing" textLength="59" x="89" y="71.6016">First pass:</text><text fill="#000000" font-family="sans-serif" font-size="12" lengthAdjust="spacing" textLength="141" x="89" y="85.7344">df = df.convert_dtypes()</text><rect fill="#F1F1F1" height="34.1328" rx="12.5" ry="12.5" style="stroke:#181818;stroke-width:0.5;" width="297" x="11" y="118.2656"/><text fill="#000000" font-family="sans-serif" font-size="12" lengthAdjust="spacing" textLength="277" x="21" y="139.8672">Select non-numeric columns (failed conversions)</text><rect fill="#F1F1F1" height="34.1328" rx="12.5" ry="12.5" style="stroke:#181818;stroke-width:0.5;" width="88" x="115.5" y="228.5332"/><text fill="#000000" font-family="sans-serif" font-size="12" lengthAdjust="spacing" textLength="68" x="125.5" y="250.1348">Pick column</text><rect fill="#F1F1F1" height="34.1328" rx="12.5" ry="12.5" style="stroke:#181818;stroke-width:0.5;" width="134" x="92.5" y="282.666"/><text fill="#000000" font-family="sans-serif" font-size="12" lengthAdjust="spacing" textLength="114" x="102.5" y="304.2676">Remove whitespace</text><rect fill="#F1F1F1" height="34.1328" rx="12.5" ry="12.5" style="stroke:#181818;stroke-width:0.5;" width="174" x="72.5" y="336.7988"/><text fill="#000000" font-family="sans-serif" font-size="12" lengthAdjust="spacing" textLength="154" x="82.5" y="358.4004">Replace commas with dots</text><rect fill="#F1F1F1" height="34.1328" rx="12.5" ry="12.5" style="stroke:#181818;stroke-width:0.5;" width="134" x="92.5" y="405.9316"/><text fill="#000000" font-family="sans-serif" font-size="12" lengthAdjust="spacing" textLength="114" x="102.5" y="427.5332">Try pd.to_numeric()</text><rect fill="#F1F1F1" height="34.1328" rx="12.5" ry="12.5" style="stroke:#181818;stroke-width:0.5;" width="141" x="89" y="508.542"/><text fill="#000000" font-family="sans-serif" font-size="12" lengthAdjust="spacing" textLength="121" x="99" y="530.1436">Drop column from df</text><polygon fill="#F1F1F1" points="88,460.0645,231,460.0645,243,472.0645,231,484.0645,88,484.0645,76,472.0645,88,460.0645" style="stroke:#181818;stroke-width:0.5;"/><text fill="#000000" font-family="sans-serif" font-size="11" lengthAdjust="spacing" textLength="14" x="163.5" y="494.6992">no</text><text fill="#000000" font-family="sans-serif" font-size="11" lengthAdjust="spacing" textLength="143" x="88" y="476.2217">Clean &amp; convert succeeds?</text><text fill="#000000" font-family="sans-serif" font-size="11" lengthAdjust="spacing" textLength="18" x="243" y="469.7441">yes</text><polygon fill="#F1F1F1" points="159.5,562.6748,171.5,574.6748,159.5,586.6748,147.5,574.6748,159.5,562.6748" style="stroke:#181818;stroke-width:0.5;"/><polygon fill="#F1F1F1" points="119,172.3984,200,172.3984,212,184.3984,200,196.3984,119,196.3984,107,184.3984,119,172.3984" style="stroke:#181818;stroke-width:0.5;"/><text fill="#000000" font-family="sans-serif" font-size="11" lengthAdjust="spacing" textLength="18" x="163.5" y="207.0332">yes</text><text fill="#000000" font-family="sans-serif" font-size="11" lengthAdjust="spacing" textLength="81" x="119" y="188.5557">More columns?</text><text fill="#000000" font-family="sans-serif" font-size="11" lengthAdjust="spacing" textLength="94" x="13" y="182.0781">no more columns</text><rect fill="#F1F1F1" height="48.2656" rx="12.5" ry="12.5" style="stroke:#181818;stroke-width:0.5;" width="161" x="79" y="628.6748"/><text fill="#000000" font-family="sans-serif" font-size="12" lengthAdjust="spacing" textLength="76" x="89" y="650.2764">Second pass:</text><text fill="#000000" font-family="sans-serif" font-size="12" lengthAdjust="spacing" textLength="141" x="89" y="664.4092">df = df.convert_dtypes()</text><ellipse cx="159.5" cy="707.9404" fill="none" rx="11" ry="11" style="stroke:#222222;stroke-width:1.0;"/><ellipse cx="159.5" cy="707.9404" fill="#222222" rx="6" ry="6" style="stroke:#222222;stroke-width:1.0;"/><line style="stroke:#181818;stroke-width:1.0;" x1="159.5" x2="159.5" y1="30" y2="50"/><polygon fill="#181818" points="155.5,40,159.5,50,163.5,40,159.5,44" style="stroke:#181818;stroke-width:1.0;"/><line style="stroke:#181818;stroke-width:1.0;" x1="159.5" x2="159.5" y1="98.2656" y2="118.2656"/><polygon fill="#181818" points="155.5,108.2656,159.5,118.2656,163.5,108.2656,159.5,112.2656" style="stroke:#181818;stroke-width:1.0;"/><line style="stroke:#181818;stroke-width:1.0;" x1="159.5" x2="159.5" y1="262.666" y2="282.666"/><polygon fill="#181818" points="155.5,272.666,159.5,282.666,163.5,272.666,159.5,276.666" style="stroke:#181818;stroke-width:1.0;"/><line style="stroke:#181818;stroke-width:1.0;" x1="159.5" x2="159.5" y1="316.7988" y2="336.7988"/><polygon fill="#181818" points="155.5,326.7988,159.5,336.7988,163.5,326.7988,159.5,330.7988" style="stroke:#181818;stroke-width:1.0;"/><line style="stroke:#181818;stroke-width:1.0;" x1="159.5" x2="159.5" y1="370.9316" y2="405.9316"/><polygon fill="#181818" points="155.5,395.9316,159.5,405.9316,163.5,395.9316,159.5,399.9316" style="stroke:#181818;stroke-width:1.0;"/><line style="stroke:#181818;stroke-width:1.0;" x1="159.5" x2="159.5" y1="484.0645" y2="508.542"/><polygon fill="#181818" points="155.5,498.542,159.5,508.542,163.5,498.542,159.5,502.542" style="stroke:#181818;stroke-width:1.0;"/><line style="stroke:#181818;stroke-width:1.0;" x1="243" x2="255" y1="472.0645" y2="472.0645"/><polygon fill="#181818" points="251,515.6084,255,525.6084,259,515.6084,255,519.6084" style="stroke:#181818;stroke-width:1.0;"/><line style="stroke:#181818;stroke-width:1.0;" x1="255" x2="255" y1="472.0645" y2="574.6748"/><line style="stroke:#181818;stroke-width:1.0;" x1="255" x2="171.5" y1="574.6748" y2="574.6748"/><polygon fill="#181818" points="181.5,570.6748,171.5,574.6748,181.5,578.6748,177.5,574.6748" style="stroke:#181818;stroke-width:1.0;"/><line style="stroke:#181818;stroke-width:1.0;" x1="159.5" x2="159.5" y1="542.6748" y2="562.6748"/><polygon fill="#181818" points="155.5,552.6748,159.5,562.6748,163.5,552.6748,159.5,556.6748" style="stroke:#181818;stroke-width:1.0;"/><line style="stroke:#181818;stroke-width:1.0;" x1="159.5" x2="159.5" y1="440.0645" y2="460.0645"/><polygon fill="#181818" points="155.5,450.0645,159.5,460.0645,163.5,450.0645,159.5,454.0645" style="stroke:#181818;stroke-width:1.0;"/><line style="stroke:#181818;stroke-width:1.0;" x1="159.5" x2="159.5" y1="196.3984" y2="228.5332"/><polygon fill="#181818" points="155.5,218.5332,159.5,228.5332,163.5,218.5332,159.5,222.5332" style="stroke:#181818;stroke-width:1.0;"/><line style="stroke:#181818;stroke-width:1.0;" x1="159.5" x2="159.5" y1="586.6748" y2="596.6748"/><line style="stroke:#181818;stroke-width:1.0;" x1="159.5" x2="267" y1="596.6748" y2="596.6748"/><polygon fill="#181818" points="263,393.8652,267,383.8652,271,393.8652,267,389.8652" style="stroke:#181818;stroke-width:1.0;"/><line style="stroke:#181818;stroke-width:1.0;" x1="267" x2="267" y1="184.3984" y2="596.6748"/><line style="stroke:#181818;stroke-width:1.0;" x1="267" x2="212" y1="184.3984" y2="184.3984"/><polygon fill="#181818" points="222,180.3984,212,184.3984,222,188.3984,218,184.3984" style="stroke:#181818;stroke-width:1.0;"/><line style="stroke:#181818;stroke-width:1.0;" x1="107" x2="60.5" y1="184.3984" y2="184.3984"/><polygon fill="#181818" points="56.5,379.8652,60.5,389.8652,64.5,379.8652,60.5,383.8652" style="stroke:#181818;stroke-width:1.0;"/><line style="stroke:#181818;stroke-width:1.0;" x1="60.5" x2="60.5" y1="184.3984" y2="608.6748"/><line style="stroke:#181818;stroke-width:1.0;" x1="60.5" x2="159.5" y1="608.6748" y2="608.6748"/><line style="stroke:#181818;stroke-width:1.0;" x1="159.5" x2="159.5" y1="608.6748" y2="628.6748"/><polygon fill="#181818" points="155.5,618.6748,159.5,628.6748,163.5,618.6748,159.5,622.6748" style="stroke:#181818;stroke-width:1.0;"/><line style="stroke:#181818;stroke-width:1.0;" x1="159.5" x2="159.5" y1="152.3984" y2="172.3984"/><polygon fill="#181818" points="155.5,162.3984,159.5,172.3984,163.5,162.3984,159.5,166.3984" style="stroke:#181818;stroke-width:1.0;"/><line style="stroke:#181818;stroke-width:1.0;" x1="159.5" x2="159.5" y1="676.9404" y2="696.9404"/><polygon fill="#181818" points="155.5,686.9404,159.5,696.9404,163.5,686.9404,159.5,690.9404" style="stroke:#181818;stroke-width:1.0;"/><!--SRC=[XP2nRWCX38Ptdi9JTJSq3t1HrQ5LjqfHcpr2O7IeW17s9RgtZoyXLRSoWF3___3PBBQ9CTD7R2nGBVDaV80Ny67dg9onoSdBMf67SQ- -Rqpe10gLvx9aRD61exJamZ046nDwkCSuKk4jSfcr2iCdDNnONqU8wb-HHmCm7QBxwPBwGTVqXPdE29eLv6eTxX_rclIcxfmjmoNA39w4ktniArI_4pfrk0rwKtIB0OQtXBR0KqSKuCKvHBy1oOpb5-aMmCJANUXUcDuRrKu9eL7M2MrlO_4n6AD7RxGGv3-zZhUXwOV-_-coKBq2]--></g></svg>